<?xml version="1.0" encoding="utf-8"?>
<!-- Generator: Adobe Illustrator 17.1.0, SVG Export Plug-In . SVG Version: 6.00 Build 0)  -->
<!DOCTYPE svg PUBLIC "-//W3C//DTD SVG 1.1//EN" "http://www.w3.org/Graphics/SVG/1.1/DTD/svg11.dtd">
<svg version="1.1" xmlns="http://www.w3.org/2000/svg" xmlns:xlink="http://www.w3.org/1999/xlink" x="0px" y="0px"
	 viewBox="0 0 470 470" enable-background="new 0 0 470 470" xml:space="preserve">
<g id="Layer_1">
	
		<rect x="-167" y="-57" display="none" fill="#ED1C24" stroke="#000000" stroke-width="7" stroke-miterlimit="10" width="980" height="691"/>
	<rect x="-114.3" y="-71" display="none" fill="#E62325" width="745.3" height="624.7"/>
	<path fill="#323030" d="M-37.7,219.4c-3.2-2.6-6.2-5.5-9.3-8.2c-0.5-0.4-1-0.9-1.6-1.3c-0.3-0.3-0.6-0.6-1-0.9l-0.1,0
		c-0.4-0.3-0.7-0.6-1.1-0.9c-2.9-2.4-5.9-4.9-9-7.4c16.7-17.3,34.4-33.1,53.1-47.9c23.6-18.7,48.6-35,75-48.6
		c0.8-1.2,1.5-2.4,2.3-3.6C46.1,113,22.6,127.9,0.2,144.8c-22.4,16.9-43.3,35.4-63.1,55.8c1,0.9,1.9,1.6,2.8,2.4
		c42.8,38.5,89.1,70,140.1,92.1c-0.9-1.2-1.8-2.3-2.7-3.5C36,273.2-2.2,248.6-37.7,219.4z"/>
	<path fill="#323030" d="M518.7,192.7c-25.6-25.9-53.1-49.5-83.6-69.4c-26-17.1-52.8-32.7-81.8-43.2c0.9,1.1,1.9,2.1,2.8,3.2
		c2.4,1,4.8,1.9,7.2,3c58.4,25.6,108.8,62.6,153.5,107.7c0.5,0.5,0.8,1,1.4,1.8c-3,2.5-5.9,4.9-8.8,7.3c-0.4,0.3-0.7,0.6-1.1,0.9
		l-0.1,0c-0.3,0.3-0.6,0.6-1,0.9c-0.5,0.4-1,0.9-1.5,1.3c-19,17.3-39.7,32.3-61.3,46.2c-27,17.4-55.2,32.1-85.2,43.3
		c-0.9,1.1-1.8,2.2-2.6,3.2c60.9-22.5,114.1-57.6,162.3-100.9C521.5,195.6,520.6,194.6,518.7,192.7z"/>
	<path fill="#D9E0EB" d="M505.8,206.1c-2.3-0.5-4.2,0.7-6.1,1.8c-30.4,17.7-61.4,34.5-93.3,49.6c-10,4.7-20.2,9.1-30.4,13.3
		c-4.8,8.8-10.4,17.1-16.7,24.9c30-11.2,58.3-26,85.2-43.3C466,238.4,486.8,223.4,505.8,206.1z"/>
	<path fill="#D9E0EB" d="M15.3,244c-18.7-9.8-37.2-19.9-55.4-30.6c-2.1-1.2-4.2-2.8-7-2.2c3.1,2.7,6.1,5.6,9.3,8.2
		c35.6,29.3,73.7,53.8,115.1,72.2c-5.9-7.8-11.1-16-15.5-24.7C46,259.8,30.6,252,15.3,244z"/>
	<path fill="#FEF8F6" d="M68.4,104.1c-26.4,13.7-51.4,30-75,48.6c-18.7,14.8-36.4,30.6-53.1,47.9c3.1,2.6,6,5,9,7.4
		c0.4,0.3,0.7,0.6,1.1,0.9l0.1,0c0.3,0.3,0.6,0.6,1,0.9c0.5,0.4,1,0.9,1.6,1.3c2.7-0.5,4.8,1,7,2.2c18.2,10.7,36.7,20.8,55.4,30.6
		c15.3,8,30.8,15.8,46.5,22.9c-11.7-22.8-18.3-48.4-18.3-75.5C43.5,159.4,52.6,129.6,68.4,104.1z"/>
	<path fill="#FEF8F6" d="M516.8,193.9c-44.7-45.1-95-82.2-153.5-107.7c-2.4-1-4.8-2-7.2-3c25.1,29.4,40.2,67.1,40.2,108.1
		c0,28.7-7.4,55.7-20.4,79.4c10.3-4.2,20.4-8.6,30.4-13.3c31.9-15,62.8-31.8,93.3-49.6c1.9-1.1,3.8-2.2,6.1-1.8
		c0.5-0.4,1-0.9,1.5-1.3c0.3-0.3,0.6-0.6,1-0.9l0.1,0c0.4-0.3,0.7-0.6,1.1-0.9c2.9-2.4,5.8-4.9,8.8-7.3
		C517.6,194.9,517.2,194.4,516.8,193.9z"/>
	<g id="top_eyebrow" display="none">
		<path display="inline" fill="#252322" d="M309.4,12.2c-1.1,1.7-0.9,3.4-1.1,5.1c-0.8,7.9-2.2,15.7-4.9,23.1
			c1.7,0.8,3.3,1.6,4.9,2.5C312.2,24.3,312.2,20.8,309.4,12.2z"/>
		<path display="inline" fill="#252322" d="M216.4-1.8l-0.5,0l-0.5,0c-1,7.9-2.1,15.8-3.3,23.7c1.5-0.1,3-0.1,4.5-0.2
			C216.8,13.9,216.8,6.1,216.4-1.8z"/>
		<path display="inline" fill="#252322" d="M182.2,12.6c-0.1-4.1-0.5-8.2-0.9-13.3c-3.7,9.4-3.1,18.3-2,27.1c1.5-0.3,2.9-0.7,4.4-1
			C182.8,21.3,182.2,17,182.2,12.6z"/>
		<path display="inline" fill="#252322" d="M280,20.5c1.1-6,0.6-10.8-1.8-14.8c-0.5,8.2-2.2,15.9-4.1,23.5c1.4,0.4,2.9,0.9,4.3,1.3
			C278.7,27.1,279.4,23.8,280,20.5z"/>
		<path display="inline" fill="#252322" d="M247.9,23.2c0.8-7.8,1.3-15.7-3.1-22.8c-0.5,7.1-1,14.1-1.6,21.2c0,0.5-0.1,0.9-0.1,1.4
			c1.6,0.2,3.2,0.4,4.7,0.6C247.9,23.5,247.9,23.3,247.9,23.2z"/>
		<path display="inline" fill="#252322" d="M104.7,53.9c-6.5-9.1-11.5-19-15-29.7c-0.7-2.3-1.2-4.9-4-7.3c3,16.6,7.9,31.6,15.1,45.8
			c-3,1-5.9,1.4-8.1,2.9c-5.9,3.9-10.8,1.7-15.8-1.7c-13.6-9.3-23.5-22-32.2-35.7c-1.6-1.7-3-3.6-3.8-5.8c-0.8-0.3-2.1-1.9-1.8,0.7
			c0.6,2.1,1.2,4.2,1.8,6.2c6.7,11.1,13.5,22.2,23.2,31.1c4.1,3.7,8.2,7.2,12.4,10.8c-4.5,2.9-9.8,3.7-14.7,5.8
			c-1.7,0.7-3.1,0-4.4-0.6c-17.3-7-31.7-18.1-44.3-31.6c-1.7-0.9-3.1-1.9-3.2-4C5.3,39.3,3.8,34-1.2,31.6c2.1,4.6,4.6,7.9,7.5,11
			c2.1,0.5,3.4,1.8,3.7,4c1.8,0.1,2.6,1.5,3.7,2.6c11.6,12.1,22.4,25,38.3,32.3c-8.3,6.8-16.6,8.4-26.3,4.6
			C12,80.6,0.7,71.9-10.4,62.7c-0.3-0.2-0.1-1-0.2-1.5c-1.7-0.1-2.9-0.8-3.2-2.6c-1.1,0.6-1.9-0.4-2.8-0.7c-0.4,0.4-0.9,0.8-1.3,1.3
			c0.1,0.7,1.5,1.2,0.5,2.1c-3.4,3.1-6.3,7.3-10.3,8.8c-2.7,1-5.5-3.7-8.4-5.6c-1-0.7-1.9-1.4-2.9-2.1c-0.1,0.3-0.3,0.5-0.5,0.8
			c1.6,3.1,4.2,5.4,6.7,7.7c1.8,1.7,2.4,2.7,0.4,4.8c-7.6,8.3-7.5,8.4-15.7,0.4c-1.4-1.3-2.7-2.7-4-4c-0.9-1-1.8-2.2-3.7-1.3
			c3.1,5.1,7.2,9.4,11.4,13.6c1.4,1.4,1.8,2.2,0.3,4.1c-7.6,9.7-7.5,9.8-16.8,1.8c-0.9-0.8-1.9-1.5-2.7-2.3c-1.1-1-2.2-1.4-3.8-0.2
			c2.3,2.7,4.5,5.3,6.8,7.8c5.8,6.1,5.6,6,0.8,12.7c-1.8,2.5-2.8,2-4.6,0.5c-5.2-4.5-10.3-9.1-15.5-13.5c-1.1-0.9-1.8-2.7-3.9-1.5
			c4.7,5.3,9.3,10.7,14.1,15.8c2.9,3,6.8,5.5,2.6,10.2c-0.3,0.3-0.4,1.6,0.8,2.3c0.9-1.2,1.9-2.3,2.8-3.6c0.8-1.2,1.5-1.7,2.8-0.6
			c8.5,7,17.9,12.5,28.2,16.8c-7.3,8.6-8,8.9-18.7,7c-16.9-2.9-31.7-10.7-45.5-20.5c-4.4-3.1-8.8-6.3-13.2-9.4
			c15.9,19.8,36.7,31.7,61.9,37.3c-3.9,3.6-7,6.4-10.1,9.4c-0.8,0.8-2.5,1.4-1.7,2.8c0.7,1.3,2,2.7,3.3,3.1c1.8,0.5,2.8-1.6,4-2.7
			c20.6-19.6,42.3-37.7,66.5-52.8c23-14.3,48-23.8,73.4-32.8c1.5-0.5,3-1.1,4.5-1.6c5.5-5.4,11.4-10.5,17.6-15.1
			C107.8,58.2,106.6,56.7,104.7,53.9z M-29.9,127.5c-9.7-3.2-18.5-7.7-27-13.3c-1.9-1.3-2.5-2.1-0.9-4.2c4.9-6.7,4.7-6.8,11.4-1.8
			c10.5,7.9,19.4,12.4,28.6,14.3C-21,127.2-24.1,129.4-29.9,127.5z M-5.2,115.2c-1.9,1.4-3.7,3.1-6.3,3c-3.5-0.2-6.7-1.4-9.9-2.7
			c-9.1-3.7-17.4-8.7-25.4-14.3c-1.8-1.2-2.1-2-0.6-3.9c6.7-8.7,6.6-8.7,14.7-1.8c8.1,6.9,16.3,13.7,26.9,16.5
			C-3.8,112.6-3.5,114-5.2,115.2z M-1.7,106c-12.7-3.5-23.2-10.5-33.5-18.3c-0.4-0.3-1.1-0.7-1.1-1c0.5-4.3,4.9-5.7,7.1-8.7
			c1.5-2,2.7-1,4.2,0.2c11.7,9.8,23.8,18.9,38.1,24.6C8.9,107.6,4,107.5-1.7,106z M11.5,96.2c-12.7-4.8-23.4-12.6-34-20.7
			c-2-1.5-1.7-2.6,0.1-3.9c0.1-0.1,0.3-0.2,0.4-0.3c8.2-7.7,8.2-7.7,16.7-0.5c10.3,8.7,20.4,17.7,33,23.5
			C22.7,99.9,17.2,98.4,11.5,96.2z"/>
		<path display="inline" fill="#252322" d="M454,77.2c-2.4-1.4-3.6,0.3-4.9,1.2c-5.1,3.4-9.2,7.8-12,13.2c-1.3,2.5-2.5,2.5-4.6,1.1
			c-5.6-3.6-11.2-7.2-17.1-10.5c-2.7-1.5-2.7-3.1-1.5-5.3c3.9-7.5,9.2-14,15.7-19.4c-1.9-1.6-3.2,0.1-4.6,0.8
			c-6.8,3.7-12,9.1-15.7,15.9c-1.4,2.6-2.7,3.2-5.5,1.7c-11.2-5.8-12.7-2.8-5.8-17.4c0.6-1.2,1.3-2.4,2-3.6
			c2.2-3.6,4.5-7.2,6.8-10.7c-8.5,4.7-14.1,11.6-17.5,20.3c-1.1,2.8-2.2,3.6-5.2,2.2c-5.2-2.5-10.7-4.5-16.1-6.6
			c-2.1-0.8-3.4-1.7-2.5-4.5c2-6.3,5.1-11.9,8.1-17.7c1.6-3.1,4.2-5.8,5.1-10.4c-5.6,5.6-9.3,11.2-13.2,16.8
			c-2.7,3.9-3.7,10.2-7.9,11.4c-4.3,1.2-9.7-1-14.6-2c-7.2-1.4-7-1.5-5.1-8.7c2.2-8.6,4.7-17.2,1.8-27.6c-1.3,11.6-4.7,21-8.8,30.2
			c-0.6,1.3-0.4,3.5-3.3,2.9c-3.2-0.7-6.4-1.3-9.5-1.8c4.1,2.5,8.2,5.2,12.1,8c24.4,5.5,48.2,13.4,71.3,23.7
			c14.4,6.4,28.3,13.8,42.6,22c-7.5-6.2-1-10.4,1.6-14.7C447.9,83.7,451.1,80.6,454,77.2z"/>
		<path display="inline" fill="#252322" d="M154.5,17.8c-0.3-4.9,0.3-9.9-1-15.4c-2.4,8-2.9,20.4-1.4,32.5c1.4-0.6,2.9-1.1,4.3-1.6
			C155.1,28.2,154.8,23,154.5,17.8z"/>
		<path display="inline" fill="#252322" d="M429.6,57.4C429.6,57.4,429.6,57.5,429.6,57.4C429.6,57.5,429.6,57.5,429.6,57.4
			L429.6,57.4z"/>
		<path display="inline" fill="#252322" d="M244.7,0.2c0,0.1,0.1,0.1,0.1,0.2c0,0,0-0.1,0-0.1L244.7,0.2z"/>
		<path display="inline" fill="#252322" d="M124.6,19.8c-0.7-5.1-1-10.3-1.4-15.4c-0.4,0-0.8,0-1.2,0c-1.1,14.8-0.2,29.4,3.4,43.8
			c1.6-1,3.2-1.9,4.8-2.8C126.8,37.2,125.7,28.5,124.6,19.8z"/>
		<path display="inline" fill="#252322" d="M307.5,46.6c0.3-1.3,0.5-2.5,0.8-3.7c-1.6-0.8-3.3-1.7-4.9-2.5c-0.2,0.6-0.4,1.2-0.7,1.8
			c-0.5,1.3-0.5,3.5-3.2,3.2c-5.3-0.7-10.5-1.4-15.8-1.6c-3.8-0.2-5.1-2.1-5.4-5.5c-0.2-2.7-0.1-5.3,0.1-7.9
			c-1.4-0.5-2.9-0.9-4.3-1.3c-0.8,3.2-1.7,6.3-2.6,9.5c-0.7,2.3-1.5,3-3.8,2.8c-6-0.5-12-0.9-18-1.2c-2.7-0.1-3.6-1.2-3.3-3.8
			c0.6-4.3,1.1-8.6,1.5-13c-1.6-0.2-3.2-0.4-4.7-0.6c-0.5,5-1.8,9.9-3.7,14.5c-0.7,1.6-1.1,3.1-3.4,3.2c-5.8,0.2-11.7,0.4-17.5,0.9
			c-2.7,0.2-2.9-0.7-2.8-3.2c0.4-5.5,0.7-11,0.8-16.6c-1.5,0-3,0.1-4.5,0.2c-0.9,5.3-1.8,10.6-2.9,15.9c-0.6,2.9-1.9,4.5-5.1,4.4
			c-2.6-0.1-5.3-0.2-7.7,0.5c-6.3,1.7-8.4-2-10-7c-1.1-3.4-2-6.8-2.8-10.3c-1.5,0.3-2.9,0.6-4.4,1c0.4,3.3,1,6.6,1.4,9.8
			c0.1,0.8,0.3,1.7,0.5,2.5c1,3.9,0.2,6.4-4.5,6.7c-2.4,0.1-4.8,0.6-7,1.5c-5.5,2.2-8.2-0.7-10.4-5.1c-1.4-2.8-2.3-5.6-3-8.5
			c-1.4,0.5-2.9,1.1-4.3,1.6c0.5,3.8,1.1,7.5,1.9,11.1c0.7,3.1,0,3.8-2.8,4.2c-3.2,0.4-6.5,0.8-9.5,2c-5.5,2.1-8.4-0.5-10.5-5
			c-0.3-0.6-0.6-1.2-0.8-1.9c-1.6,0.9-3.2,1.9-4.8,2.8c0.4,1.7,0.9,3.4,1.4,5.1c0.7,2.5-0.2,2.8-2,3.2c-2.5,0.6-4.9,1.4-7.4,2.1
			c-4.1,1.2-6.2,1.6-8.1,0.5c-6.2,4.7-12,9.7-17.6,15.1c66.9-23,135.2-32.8,205.9-23.4c11,1.5,21.8,3.4,32.6,5.8
			c-3.9-2.8-7.9-5.5-12.1-8C314.6,47.9,311,47.3,307.5,46.6z"/>
		<path display="inline" fill="#372221" d="M411.9,30.1C350.4,8.1,287.5-7,222.1-10.4C184.9-12.3,148-10,111.6-2.1
			C87,3.3,63.6,11.7,40.9,22.3c0.7,2.3,2.2,4.1,3.8,5.8c16.5-8.4,34-13.8,51.8-18.5c8.4-2.2,16.8-4.3,25.5-5.3c0.4,0,0.8,0,1.2,0
			c7.9-2.6,16.1-3,24.3-3.9c22.6-2.5,45.3-3.1,68-2.2l0.5,0l0.5,0c9.5,0.1,19,0.3,28.4,2.1c0,0-0.1,0-0.1,0C257-0.1,269,2,281,3.6
			c43,5.9,85.2,15.2,127,27.2c2.3,0.7,4.6,2.2,7.4,1.2C414.6,30.5,413.1,30.5,411.9,30.1z"/>
		<path display="inline" fill="#372221" d="M39.2,23C29.5,29,19.1,33.8,10,40.7c0.1,2.1,1.5,3.2,3.2,4C22.2,39,31.6,34.3,41,29.3
			C40.4,27.2,39.8,25.1,39.2,23z"/>
		<path display="inline" fill="#372221" d="M-4.9,65.4c-1.7-0.1-2.8-0.8-3.1-2.5C-2.1,57,5.1,52.7,11.4,47.3
			c2.1,0.5,3.3,1.7,3.6,3.9C8.4,55.9,1.8,60.7-4.9,65.4z"/>
		<path display="inline" fill="#323030" d="M-10.7,62.2c-0.4,0.4-0.9,0.8-1.3,1.2c-2.7-2.6-5.5-5.2-8.2-7.9l0.1,0.1
			C-15.9,56.3-13.7,59.8-10.7,62.2z"/>
		<path display="inline" fill="#252322" d="M-34.7,66.6c0.2-0.3,0.4-0.5,0.6-0.8c0,0.1,0.1,0.2,0.1,0.3
			C-34.2,66.3-34.4,66.5-34.7,66.6L-34.7,66.6z"/>
		<polygon display="inline" fill="#323030" points="-20.2,55.6 -20.1,55.4 -20.2,55.7 		"/>
		<path display="inline" fill="#252322" d="M-34.7,66.6c0.7-0.5,1.4-0.7,2.1,0c-0.1,0.3-0.3,0.5-0.5,0.8
			C-33.6,67.1-34.1,66.9-34.7,66.6L-34.7,66.6z"/>
	</g>
	<g id="Bottom_eyebrow" display="none">
		<path display="inline" fill="#252322" d="M162.4,366.6c-1.3,3.5-2.2,7.2-2.7,10.9c-1.1,7.9-0.6,15.8,3.2,23.1
			c0.5-2.1,0.3-4.1,0.6-6.1c1-9.3,0.4-18.9,4.9-27.7c0.2-0.5,0.5-0.9,0.7-1.2c-2.1-0.6-4.2-1.2-6.2-1.9
			C163.1,364.4,162.9,365.3,162.4,366.6z"/>
		<path display="inline" fill="#252322" d="M200.1,387.1c-1,3.9-1.9,7.8-3,12.5c6.6-7,9.1-14.1,9.9-26.7c0-0.2,0-0.3,0-0.4
			c-1.6-0.1-3.3-0.3-4.9-0.4C201.8,377.1,201.4,382.2,200.1,387.1z"/>
		<path display="inline" fill="#252322" d="M273.9,383.6c1.2,2.5,2.2,5,3.4,7.4c1.2,2.4,1.5,5.3,3.7,7.8c1-12.6-4.5-22.4-11-32.1
			c-2,0.5-3.9,1-5.9,1.5C268.1,372.9,271.2,378.1,273.9,383.6z"/>
		<path display="inline" fill="#252322" d="M230.7,378.1c1.5,6.5,1.7,13,2.3,20.3c3.3-6.2,3.7-11,1.1-25.8c-1.5,0.1-3.1,0.2-4.7,0.3
			C229.8,374.3,230.2,376.1,230.7,378.1z"/>
		<path display="inline" fill="#252322" d="M438.9,297.5c-1.7-1.6-3.1,0.5-4.4,1.3c-24.6,14.7-49.9,27.8-76.9,37.7
			c-13.6,4.9-27.4,8.5-41.4,11.1c-8.3,4.9-17.1,9.1-26.2,12.7c2.1,0.7,4.1,2,6.1,3.5c7.7,5.9,13.7,13.4,20.1,20.6
			c-2.1-11.1-9-19.3-16.8-26.4c17.7-8.2,32.9-3.8,46.8,8c-3.2-7.5-9.6-11.3-16.3-15.7c5.6-1.7,10.8-2.4,15.2-4.7
			c12-6.4,20-1.3,27.1,8c1.9,2.5,3.8,4.9,5.8,7.3c0.8,0.9,1.2,2.4,3,2.4c-1.3-4.9-3.2-9.1-5.9-13.2c-2.6-4-6.4-6.9-9.5-10.8
			c6.9-2.8,13.2-5.2,19.5-7.9c2.6-1.1,4.3-0.8,6.4,1c4.6,3.9,8.1,8.7,12.6,13.8c-1-8.1-6.2-12.8-10.6-18.1c7.9-4,15.4-7.8,22.8-11.7
			c2.4-1.3,3.7-0.7,5.1,1.3c2.2,3.1,4.6,6.1,7.5,9.9c-0.6-4.9-3-8.2-4.9-11.5c-1.6-2.6-0.9-3.7,1.5-5c4.5-2.5,8.8-5.4,13.3-7.7
			C442.9,301.2,440.5,299.1,438.9,297.5z"/>
		<path display="inline" fill="#252322" d="M7.7,304.1c-25.1-14.5-47.9-32-69.3-51.5c-0.4,0.4-0.7,0.8-1.1,1.1
			c1.4,1.7,1.2,3.3-0.2,5c-2.8,3.5-5.9,6.7-9.6,9.3c-2.8,2-5.6,4-8.4,6c10.2-0.9,17.3-6.4,22.7-14.7c6.3,6.1,12.3,12,18.5,17.7
			c2.1,1.9,1.2,3.1-0.1,4.6c-4.4,5.4-9.7,9.7-15.5,13.5c-0.7,0.5-1.5,0.9-2.1,1.4c-0.7,0.5-1.8,0.8-1.5,2.1c7-1.2,12.9-4.3,18.3-9
			c2.4-2.1,3.7-6.8,7.1-6.2c3,0.5,5.5,3.9,8.4,5.6c3.7,2.2,3.6,4.5,1.5,7.9c-4.2,6.6-9.8,11.8-15.3,17.2c2.3,1,3.9-0.1,5.5-1
			c6.3-3.4,10.3-8.9,14.1-14.7c0.8-1.2,1.1-3.6,3.7-1.8c6.2,4.3,15.6,7.1,17.7,13.3c2.2,6.4-5,13.5-9.3,19.7c-1.6,2.4-3.4,4.7-5,7
			c9.1-4,14.6-11.3,18.2-19.8c1.7-4,3.5-4.3,6.8-2.3c3.2,2,6.6,3.7,9.8,5.6c3.1,1.8,7.5,3.1,8.8,5.8c1.5,2.9-2.5,6.2-3.4,9.6
			c-0.5,1.8-1.4,3.6-1.7,5.4c-0.8,5-1.8,10.1-0.2,15.2c2.6-8.3,5.7-16.2,9.3-24c1.3-2.8,2.6-3.9,5.8-2.3c5.2,2.6,10.7,4.7,16.1,6.7
			c3.3,1.2,3.9,2.7,3,6.1c-2.4,9.4-2.6,18.8,1.2,28.4c1.6-2.6,1.2-5.1,1.3-7.4c0.3-6.7-0.1-13.4,2.2-19.9c1.1-3,2.2-3.4,5.1-2.4
			c8.4,2.9,16.9,5.7,25.4,8.1c3.4,1,3.7,2.1,2.3,5.2c-4.6,9.8-5.2,20-2.5,31.1c1.2-2.9,1.4-5.2,1.7-7.6c1.2-7.8,2.2-15.6,6.2-22.6
			c1.4-2.5,3.2-3.3,5.9-2.6c6,1.5,12,2.9,18,4.3c2.4,0.6,3.5,1.3,2.1,4.1c-1.7,3.2-2.9,6.6-3.8,10c-1.6,5.8-2.3,11.8-0.4,17.7
			c0.9-1.9,1.4-3.9,1.9-5.8c1.9-7.1,3.5-14.3,7.3-20.8c1.4-2.3,2.9-3.6,6.2-2.9c5.3,1.2,10.8,1.8,16.2,2.3
			c-9.5-3.5-18.7-7.7-27.4-12.6C86.5,340.8,45.8,326.1,7.7,304.1z"/>
		<path display="inline" fill="#252322" d="M249,355.6c-38.8,3.3-77.6,1.3-116-5.8c-1.1-0.2-2.2-0.4-3.3-0.6
			c8.7,4.9,17.8,9.1,27.4,12.6c0.7,0.1,1.4,0.1,2.2,0.2c2.2,0.2,3.5,0.6,3.8,1.9c2.1,0.7,4.1,1.3,6.2,1.9c1.1-1.6,2.5-2.1,4.8-1.9
			c7.7,0.7,15.4,1.2,23.2,1.3c4,0,5.2,1.8,5,5.2c0,0.6-0.1,1.2-0.1,1.8c1.6,0.2,3.3,0.3,4.9,0.4c0.4-7.1,0.6-7.2,8-7.2
			c10.8-0.1,12.4-0.1,14.5,7.6c1.6-0.1,3.1-0.1,4.7-0.3c-0.4-2.3-0.9-4.8-1.4-7.6c8.1-0.7,16.1-1.3,24.1-2c2.2-0.2,3.5,0.9,4.8,2.3
			c0.9,0.9,1.7,1.9,2.5,2.9c2-0.5,4-1,5.9-1.5c-1.1-1.6-2.2-3.2-3.3-4.7c5.7-0.8,10.6-1.1,15.4-2.1c2.8-0.6,5.3-0.4,7.6,0.4
			c9.1-3.6,17.9-7.8,26.2-12.7C293.9,351.7,271.4,353.6,249,355.6z"/>
		<path display="inline" fill="#323030" d="M-54.3,250.8c-0.4,0.4-0.7,0.7-1.1,1.1c-2-2.1-3.9-4.3-5.9-6.4
			C-58.2,246.4-56.2,248.5-54.3,250.8z"/>
	</g>
	<path fill="#252322" d="M415.9,62.4c-0.2-0.2-0.4-0.4-0.6-0.6c0.4-0.2,0.5-0.1,0.3,0.3C415.6,62.2,415.8,62.3,415.9,62.4
		C415.9,62.4,415.9,62.4,415.9,62.4z"/>
	<path fill="#D9E0EB" d="M508.3,210c0.4-0.3,0.7-0.6,1.1-0.9C509,209.3,508.7,209.6,508.3,210z"/>
	<path fill="#D9E0EB" d="M507.3,210.9c0.3-0.3,0.6-0.6,1-0.9C508,210.3,507.6,210.6,507.3,210.9z"/>
	<path fill="#D9E0EB" d="M-50.7,214c0.4,0.3,0.7,0.6,1.1,0.9C-50,214.6-50.3,214.3-50.7,214z"/>
	<path fill="#D9E0EB" d="M-49.6,215c0.3,0.3,0.6,0.6,1,0.9C-48.9,215.6-49.3,215.3-49.6,215z"/>
	<path fill="#C6823C" d="M328.3,285c0.3-0.3,0.7-0.7,1-1C329,284.3,328.7,284.7,328.3,285z"/>
	<path fill="#C68542" d="M101.6,253.1c0.2,0.3,0.5,0.6,0.7,1C102.1,253.7,101.9,253.4,101.6,253.1z"/>
	<path fill="#FFFFFF" d="M58.7,122.1l12.7-25.9l31-25.5c0,0,59.2-18,117.2-20.5c58.1-2.6,118.3,16.3,118.3,16.3
		s63.7,70.5,58.4,123.1c-5.3,52.6-33.6,113-60.3,126.4c-29.7,14.9-66.5,19.1-103.1,23.1c-36.6,4-85.9-1.2-106.8-13.1
		s-57.7-42-57.7-42s-27-50.5-24.8-98.5C45.8,137.5,58.7,122.1,58.7,122.1"/>
	<g display="none">
		<path display="inline" fill="#323030" stroke="#000000" stroke-width="4" stroke-miterlimit="10" d="M336,322
			c0.6,0.6,1.2,1.2,1.9,1.8c0.8-1,1.5-2,2.2-3.1C338.7,321.2,337.4,321.6,336,322z"/>
		<path display="inline" fill="#323030" d="M242,56.2c0,0.1-0.3,1.8,0.7,2.1c0.1,0,0.2,0,0.3,0C244.1,58.1,242,56.3,242,56.2z"/>
		<path display="inline" fill="#D9E0EB" d="M125.6,306.4C125.6,306.4,125.6,306.4,125.6,306.4C125.6,306.4,125.6,306.4,125.6,306.4
			L125.6,306.4z"/>
		<path display="inline" fill="#FEF8F6" d="M125.7,306.4c-0.8-1-1.6-2.1-2.4-3.1c-0.8-0.7-1.5-1.4-2.3-2.1c-2.8-1-4.5-3.3-6.2-5.6
			l-0.1-0.1c-0.3-0.3-0.6-0.7-0.9-1c-0.3-0.3-0.5-0.6-0.8-0.8c-3-3-6.4-5.8-8.2-9.8c-0.9-1.1-1.9-2.3-2.8-3.4
			c-1.6-1.6-3.1-3.1-3.8-5.4c-0.3-0.3-0.6-0.7-0.9-1c-1.1-0.3-1.1-1.1-1.2-2c-2-1.9-3.2-4.3-4.2-6.8l0,0c-0.3-0.4-0.5-0.7-0.8-1.1
			c-0.6-1-1.6-1.9-1.3-3.3c-1.1-1.2-2-2.6-2-4.3c-1.7-1.5-2.9-3.2-3.4-5.4c-0.5-1-1.6-1.8-1.2-3.2c-0.9-0.9-1.2-2-1.2-3.3
			c-1.3-0.7-1-2.1-1.4-3.1c-0.6-1.9-1.8-3.5-1.7-5.6c-0.4-1.1-0.7-2.2-1.1-3.3c-1.4-2.3-2.4-4.8-2.2-7.6c-0.2-0.3-0.2-0.6-0.2-1
			c-1.5-5-3.2-9.9-2.9-15.2c-0.1-1.1-0.2-2.2-0.3-3.3c-2.2-7.5-0.8-15.2-0.9-22.8c0-1.4,0.1-2.9,0.1-4.3c0-7.7,1.4-15.3,3.2-22.8
			c0.3-1.1,0.7-2.2,1-3.3c0.1-3.6,1.4-6.8,2.7-10c1.1-4.4,2.4-8.8,4.8-12.7c0.5-1.1,1-2.3,1.5-3.4c0.6-2.8,1.8-5.3,3.6-7.5
			c0.1-0.8-0.1-1.7,1-2.1c1.7-3.9,3.7-7.6,6.5-10.9c0.8-1.1,1.6-2.1,2.4-3.2c0.6-2.7,2.7-4.4,4.3-6.4c0.6-0.8,1.3-1.6,1.9-2.3
			c2.3-3.8,5.1-7.1,8.6-9.8c0.7-0.7,1.5-1.4,2.2-2.2c1-2.9,3.8-4.3,5.6-6.5c-1.4,0.2-2.9,0.1-4.2,0.6c-14,4.8-27.6,10.3-40.8,16.4
			c-0.8,0.6-1.5,1.1-2.2,1.7c-1,2,1,6,0,8c-1,1-3,3-3,4c-7,18-10,36-18,53c-7,15-12,32-9,48c3.5,24.4,4.1,53.1,13.5,76.4
			c9.4,4,18.8,7.8,28.4,11.3C98.9,299.4,111.8,304.5,125.7,306.4z"/>
		<path display="inline" fill="#FEF8F6" d="M402,219c-1.1,13.5-1.5,28-3.1,42.2c7.6-19.9,11.8-41.5,11.8-64c0-22.6-4.2-44.3-12-64.4
			C403.3,161,403.2,190.2,402,219z"/>
		<path display="inline" fill="#FEF8F6" d="M390.6,209c-1-2,0.4-5,0.4-7c7-49-17-90-46-128c-0.5-0.7-1.3-1.3-2.2-2
			c-5.3-1.3-10.6-2.4-16.1-3.2c0.2,0.5,0.4,0.9,0.5,1.4c1.1,1,2.3,2,3.4,3c2.5,1.4,4.6,3.2,6.3,5.6l0.1,0.1c3.9,3,7.1,6.7,9.8,10.7
			c0.8,1,1.6,2.1,2.4,3.1c2.1,1.7,4.3,3.4,4.4,6.4c0.9,0.1,1.7,0.3,1.8,1.4c3,3.6,5.7,7.4,7.5,11.8c0.6,1,1.1,2,1.7,3.1
			c1.9,1.9,2.9,4.3,3.7,6.7c0.2,0.3,0.3,0.5,0.3,0.9c2.7,4.4,4.7,9.1,6,14.1c0.4,1.1,0.8,2.3,1.2,3.4c1.3,2.4,2.2,4.8,2.3,7.6
			c0.2,0.3,0.3,0.6,0.2,1c1.8,4.6,3.1,9.2,3.1,14.2c0.2,1,0.5,2.1,0.7,3.1c0.7,2.2,0.8,4.4,0.6,6.7c1,1.3,1,2.8,0.4,4.3
			c-0.6,4.4,1.5,8.8-0.4,13.1c0,1.1,0,2.1,0,3.2c1.5,2.4,0.7,5,0.7,7.6c0,0.7,0,1.5,0,2.2c-0.2,4.9-0.9,9.7-2.5,14.3
			c-0.2,1-0.4,2-0.6,3.1c0.4,2.9-0.8,5.3-1.9,7.8c0.1,0.3,0,0.6-0.2,0.8c-0.4,3.5-1.4,6.8-3.1,9.9c-0.1,1.2,0.2,2.5-1.3,3.1
			c-0.4,1.1-0.8,2.2-1.2,3.4c-1.9,2.3-1.7,5.7-3.9,7.9c0.1,0.8,0.1,1.6-0.9,2c-0.2,0.7-0.3,1.3-0.5,2c-0.6,2.1-1.5,4-3.1,5.6
			c0.3,1.9-2,1.8-2.5,3.1c0.2,2.3-1.2,3.5-2.8,4.7c-1.1,1.3-1.2,3.5-3.1,4.2c-0.4,1.5-0.3,3.1-1.7,4.1c-2.7,4.1-5.4,8-9.4,11.1
			c-0.8,1-1.5,2-2.3,3c-0.8,1.6-2,2.8-3.6,3.6c-0.3,0.3-0.5,0.5-0.8,0.8c-0.4,0.4-0.7,0.7-1.1,1.1c-0.4,0.3-0.8,0.7-1.2,1
			c-0.8,1-1.6,2-2.3,2.9c7.7,0.5,14.9-2.2,21.1-5.7c2.4-1.3,4.8-2.5,7.2-3.5C379,268.9,389.4,241.8,390.6,209z"/>
		<path display="inline" fill="#C6823C" d="M273.1,106.9c-0.1,0.2-0.2,0.3-0.3,0.5C272.9,107.2,273,107,273.1,106.9
			C273.1,106.9,273.1,106.9,273.1,106.9C273.1,106.9,273.1,106.9,273.1,106.9z"/>
		<polygon display="inline" fill="#C6823C" points="148.3,67.8 148.3,67.8 148.3,67.8 		"/>
		<polygon display="inline" fill="#C6823C" points="256.8,115.6 256.8,115.6 256.8,115.5 256.8,115.5 		"/>
		<path display="inline" fill="#C6823C" d="M335.9,299.9c-5.8-6.4-11.6-12.6-17.3-19.1c-7-7.9-13.9-16-20.8-24
			c-0.7-0.8-1.7-1.4-1.4-3.2c3.2,0.7,4.7,3.4,6.7,5.5c11.2,12.1,22.4,24.3,33.6,36.5c0.6,0.6,1.5,0.9,2.3,1.4c1.5-0.9,2.8-2,3.6-3.6
			c0-2.3-1.9-3.4-3.2-4.7c-9-9.1-18.1-18.1-27.1-27.1c-1.1-1.2-3.1-2-2.6-5.7c11.7,12.5,24.7,22.1,35.2,34.6c3.9-3,6.7-7,9.4-11.1
			c-8.9-5.5-16.3-12.8-24.6-19c-5.5-4.1-10.7-8.5-16-12.8c-1-0.8-2.1-1.5-2-3.7c5.8,2.9,10.3,7.2,15.2,10.7
			c8.4,6.1,16.5,12.7,24.7,19.2c1.4,1.1,2.8,1.5,4.5,1.6c2-0.7,2-2.8,3.1-4.2c-3.3-4.4-8.5-6.4-12.7-9.7
			c-5.9-4.6-12.4-8.5-18.5-12.8c-0.5-0.4-0.8-1-1.9-2.3c3.9,0.5,6.2,2.4,8.5,3.9c7.2,4.7,14.4,9.4,21.5,14.3c1.8,1.3,3.6,2.3,5.9,2
			c0.5-1.3,2.8-1.2,2.5-3.1c-5.9-5.9-13.7-9.1-20.6-13.5c-10.6-6.9-21.6-13.2-33.6-20.5c3.9-0.7,5.7,1.1,7.5,2.1
			c14.9,8.4,29.7,16.9,44.5,25.3c1.6,0.9,3.4,1.1,5.2,1c0.2-0.7,0.3-1.3,0.5-2c-10-3.8-18.7-10-28.2-14.7
			c-6.3-3.1-12.3-6.8-18.4-10.2c-1.5-0.8-3.6-1.1-3.7-3.4c-1.9,0-3.8-0.2-5.3-2.7c2.4,0.6,4.1,1.2,5.4,2.7
			c17.5,7.9,34.7,16.4,51.2,26.4c2.2-2.2,1.9-5.6,3.9-7.9c-1.8,0.1-3.5-0.3-5.2-1.1c-15.6-7.3-31.2-14.6-46.9-21.8
			c-0.8-0.4-1.5-0.9-3.3-2c5.9,0.1,9.6,2.9,13.6,4.5c12.8,5.2,25.5,10.8,38.1,16.3c1.6,0.7,3.1,0.8,4.7,0.8c1.5-0.6,1.2-1.9,1.3-3.1
			c-0.2-2.3-2-2.7-3.7-3.3c-21.1-8.2-42.2-16.5-63.3-24.8c-0.8-0.3-1.8-0.3-1.9-1.6c1.9-0.7,3.4,0.4,5,1c19.3,6.9,38.6,13.9,58,20.7
			c2.6,0.9,5.7,3.4,8-0.7c-20.8-7-41.6-13.9-62.4-21c-1-0.3-1.8-1.2-2.6-1.8c-0.8-0.1-1.6-0.3-2.4-0.4c0.1-0.1,0.2-0.4,0.3-0.4
			c0.9-0.3,1.6,0,2.1,0.8c6.1,0,11.4,3,17,4.6c15.2,4.3,30.1,9.2,45.2,13.8c1.6,0.5,3.1,0.9,4,2.4c1-2.5,2.3-5,1.9-7.8
			c-18.7-5-37.3-10.1-56-15.1c-1.5-0.4-3-0.9-4.7-1.3c0.6-1.3,1.6-1,2.3-0.8c19.2,4.5,38.3,9,57.5,13.5c0.5,0.1,1,0.4,1.5,0.7
			c1.7-4.6,2.4-9.4,2.5-14.3c-4.7,1.2-9.1-0.5-13.6-1.1c-21-3.2-42-6.5-63-10.1c4.4-1.6,8.7,0.1,12.9,0.6
			c20.5,2.2,40.9,4.9,61.3,7.5c0.9,0.1,1.7,0.7,2.5,1c0-2.6,0.7-5.2-0.7-7.6c-21.2-1.9-42.5-3.8-63.7-5.8c0-0.2,0-0.5,0-0.7
			c5,0,10.1-0.8,14.8,0.2c7.9,1.6,15.8,0.7,23.6,1.6c8.3,1,16.9,0.7,25.3,1.4c1.9-4.3-0.1-8.7,0.4-13.1c-26.9-0.5-53.7,2.3-80.6,0.5
			c26.7-1.6,53.5-3.2,80.2-4.8c0.1-2.3,0.1-4.5-0.6-6.7c-19.6,1.8-39.2,3.7-58.9,5.5c-2.2,0.2-4.6,0.5-7.8-0.7
			c22.6-2.7,44.3-5.3,65.9-7.9c0-4.9-1.3-9.6-3.1-14.2c-4,3.7-9.4,3.1-14.2,4.1c-20,4.3-40,8.2-60.1,12.1c-0.8,0.2-1.8,0-2.8-0.8
			c5.2-1.2,10.4-2.5,15.6-3.7c19.2-4.4,38.5-8.7,57.7-13.2c1.4-0.3,2.4-0.2,3.6,0.4c-0.1-2.7-1-5.2-2.3-7.6
			c-12.9,2.3-25.4,6.5-38,9.7c-7.1,1.8-14.1,3.7-21.2,5.6c-0.1-0.4-0.2-0.9-0.4-1.3c19.5-5.8,38.9-11.6,58.4-17.4
			c-1.3-5-3.3-9.7-6-14.1c-0.1,2-1.6,2.7-3.1,3.2c-18.2,7.2-36.4,14.3-54.7,21.4c-1,0.4-2,0.7-3.8-0.3c8.3-3.5,16.1-6.9,23.9-10.2
			c11.4-4.8,22.8-9.6,34.3-14.4c1-0.4,2.1-0.4,3.1-0.6c-0.8-2.5-1.8-4.9-3.7-6.7c-16.7,7.7-33.5,15.4-50.2,23.1
			c-0.2-0.5-0.4-0.9-0.7-1.4c16.4-8.3,32.8-16.5,49.2-24.8c-1.7-4.4-4.5-8.2-7.5-11.8c-6.2,5.9-14,9.3-21.1,13.7
			c-9,5.6-18.1,11-27.1,16.6c-1.5,0.9-3,2-4.9,2.2c-2,2.4-4.2,4.4-7.6,4.3c-0.1,0.2-0.2,0.3-0.3,0.5c0.1-0.2,0.2-0.3,0.2-0.5
			c2-2.4,4.2-4.4,7.6-4.4c0-1.8,1.5-2.4,2.6-3.1c14.9-9.7,29.8-19.5,44.7-29.1c1.2-0.8,2.7-1,4-1.5c-0.2-3-2.3-4.7-4.4-6.4
			c-10.9,7.6-21.8,15.3-33.9,23.7c1.3-4.6,4.3-5.5,6.3-7.1c7.6-5.9,15.5-11.5,23.2-17.3c0.8-0.6,1.4-1.6,2.1-2.4
			c-2.8-4-6-7.7-9.8-10.7c0.3,2-0.7,3.4-2.1,4.6c-12.1,10.7-24.2,21.4-36.3,32.1c-0.9,0.8-1.5,2.2-4.3,1.1
			c3.8-3.8,7.1-7.3,10.7-10.6C313.6,98,322.3,90,331.1,82c1.7-1.6,3-3.7,5.8-3.2c-1.7-2.3-3.8-4.1-6.3-5.6c-9,8.7-18,17.4-27.6,26.7
			c-0.6-3.2,1.3-4.1,2.4-5.3c6.7-7.1,13.4-14.1,20.1-21.2c0.9-0.9,1.8-1.8,1.7-3.2c-0.2-0.5-0.4-0.9-0.5-1.4c-4.3-2-8.9-2.5-13.5-3
			c-2.4,7.2-8.5,11.9-12.6,18c-4,5.9-8.9,11.3-13.4,16.9c-0.6,0.8-1.3,1.8-3.2,1c3.2-5.8,7.5-10.7,11.5-15.9
			c5.2-6.8,9.7-14.2,15.9-20.3c-3-0.6-6-1.2-9.1-1.8c-3,8-9,14.1-13.6,21.2c-2.4,3.8-4.4,8-8.5,10.6c5.5-11.1,13.3-20.9,18.8-31.9
			c-4.2-1.5-8.6-1.8-13-2.1c-6.2,15-15.3,28.5-22.8,44.2c-1.1-3.6,0.4-5,1.2-6.5c5.4-11,10.9-21.9,16.4-32.9
			c0.9-1.7,2.2-3.3,1.9-5.5c-2.1-0.8-4.3-0.5-6.4-0.4c-6.5,14.5-13,29-19.5,43.5c4.5-15,11.4-29,16.4-43.8c-3.3-2.3-7.6,0.3-10.9-2
			c-6.2,14.6-9.9,30.1-15.1,45.1c-0.7,2-1.5,4-2.7,5.8c3.5-17.2,9.9-33.7,13.6-50.9c-2.2,0-4.4,0.1-6.5,0.1
			c-2.2,12.1-5.5,23.9-9.3,35.6c1.1-12,5.6-23.5,6.2-35.6c-0.4-0.1-0.7-0.2-1.1-0.4c-3.3,0-6.5,0-9.8,0c-1.6,11.9-3.2,23.7-4.8,35.6
			c-1,7-2,14-3.9,20.8c1.8-18.8,3.7-37.6,5.5-56.4c-1.8,0-3.6-0.1-5.5-0.1c-0.4,0.1-0.7,0.3-1.1,0.4c0.7,14.7-2.3,29.3-2.6,44
			c-1.8-14.7,1.1-29.3,0.5-44c-6.9,0-13.9-0.9-20.7,1.1c1.6,14,3.1,28,4.7,42c-0.4,0-0.7,0.1-1.1,0.1c-1.9-13-3.8-26-5.8-39
			c-0.2-1-0.6-2-1-3.1c-6.6-0.1-13.2,0.8-19.6,2.1c0.9,9.3,4.8,17.9,7.1,26.9c1,4,2.7,7.8,2.7,12c0.8,0.5,1.2,1.2,0.8,2.1
			c0,0.1-0.3,0.2-0.4,0.3c-0.1-0.8-0.3-1.6-0.4-2.4c-5.2-12.3-8.8-25.1-13-37.7c-0.7,0-1.5-0.1-2.2-0.1c2.4,10.4,6.3,20.2,9.7,30.2
			c2.7,7.9,5.3,15.8,8,23.7c-0.4,0.1-0.8,0.3-1.3,0.4c-2.3-5.9-4.7-11.8-6.8-17.8c-4.2-12.2-9.5-24-13-36.5
			c-8.4,1.3-16.9,2.5-25,5.2c0,0,0,0,0,0c1.5,0.1,2.8,0.2,3.6,1.8c7,12.5,14.1,24.9,20.4,37.8c-8.9-12.6-17.5-25.5-24-39.6
			c0,0,0,0,0,0c0,0,0,0,0,0c0,0,0,0,0,0c-2.7-0.2-5.2,0.7-7.6,1.6c8.1,13,16.1,26,25.1,38.4c16.2,5.5,24,14.9,25,30.4
			c7.4-5.4,16.1-7.7,24.8-9.7c0-2.4,0-4.9,0-7.3c0.4,0,0.8,0,1.1-0.1c0,2.4,0,4.9,0,7.3c16.8-1.3,32.1,2.1,45.8,12.5
			c31.7,24.2,32,73.3,0.3,97.5c-1.3,1-2.6,2-3.9,3c-0.4,4,1.9,7.1,3.2,10.6c0.7,1.9,1.3,3.7,1.1,5.7c0.9,0.5,1.1,1.3,1.1,2.2
			c5.6,9.3,8.7,19.6,12.8,29.5c3.2,7.8,7.5,15.1,9,23.6c0.3,0,0.7,0.1,1,0.1c1.9,0.1,3.8-0.1,5.5-1.2c-1.6-9-7-16.5-10.4-24.8
			c-2.8-6.9-6.2-13.6-8.3-20.9c3.3,6.5,6.5,13,9.8,19.4c4.4,8.5,8,17.3,13.2,25.4c4.4,0.1,8.8-0.2,13-2.1
			c-6.2-7.7-10.4-16.7-15.7-25c-3.6-5.7-6.9-11.6-10.3-17.2c0.9-0.9,1.5-0.9,1.8-0.4c8.4,13,16.7,25.9,25.1,39
			c0.7,1,0.9,2.3,1.4,3.5c2.7,0.2,5.2-0.4,7.5-2c-6.1-9.1-12.3-18.2-18.4-27.3c0.5-0.3,0.9-0.6,1.4-1c7,9.2,14.7,17.9,20.3,28.2
			c0.6,0.9,1.5,1,2.4,1.1c2.5-1.4,4.9-2.8,7.4-4.2c0.2-0.4,0.5-0.6,0.9-0.5l0-0.1C334.3,301.8,335.1,300.9,335.9,299.9z
			 M324.4,244.1c0.1,0.3,0.3,0.6,0.3,0.8c-0.1,0.2-0.5,0.3-0.8,0.4c-0.2-0.3-0.3-0.5-0.5-0.7C323.8,244.5,324.1,244.3,324.4,244.1z
			 M320.5,241.8c0.3,0.1,0.6,0.3,0.9,0.4c-0.1,0.3-0.3,0.6-0.4,0.9c-0.3-0.1-0.8-0.2-0.9-0.4C320.1,242.4,320.4,242.1,320.5,241.8z
			 M317.2,239.6c0.3,0.1,0.8,0.2,0.9,0.4c0.1,0.2-0.2,0.6-0.4,0.9c-0.3-0.1-0.8-0.2-0.9-0.4C316.8,240.3,317.1,239.9,317.2,239.6z
			 M303.7,238.7c-1.2,0.1-1.2-0.8-1.3-1.6c-0.1-0.1-0.3-0.3-0.4-0.4c0.1,0,0.2,0,0.3,0.1c0.1,0.1,0.1,0.2,0.2,0.4
			c0.8,0.1,1.7,0.1,1.7,1.3C304,238.5,303.8,238.7,303.7,238.7z M308.7,243.1c-0.6-0.2-1.3-0.7-1.5-1.2c-0.3-0.7,0.2-1.4,1-1.2
			c0.6,0.2,1,0.8,1.3,1.1C309.7,242.8,309.2,243.2,308.7,243.1z M306.1,226.3c-0.1-0.2,0.3-0.8,0.4-0.8c1.4,0,2.5,0.6,3.1,2.1
			C307.8,228.2,306.8,227.6,306.1,226.3z M310.2,235.1c0,0.1,0.1,0.4,0.1,0.4c-0.1,0.1-0.3,0.1-0.5,0.2c0-0.1-0.1-0.4-0.1-0.4
			C309.8,235.2,310,235.2,310.2,235.1z M310.8,223.5c-2.6,0.7-4.1-0.5-6.4-2.5C307.5,220.7,309,221.8,310.8,223.5z M306.4,206.7
			c-1.4-0.5-2.9-1-4.6-1.5C304.2,203.9,305.5,205.1,306.4,206.7z M312.7,155.8c0.3,0,0.5,0.3,0.8,0.5c-0.3,0.1-0.6,0.3-0.9,0.4
			c-0.3-0.2-0.5-0.3-0.8-0.5C312.1,156.1,312.4,155.8,312.7,155.8z M300,191.2c0-0.1-0.1-0.3-0.1-0.4c0.2,0.1,0.4,0.1,0.7,0.2
			C300.3,191.1,300.2,191.2,300,191.2z M305.7,148.5c-1.8,2.3-3.6,2.5-6.5,2.8C301.4,149.6,302.9,148.5,305.7,148.5z M297.8,233.1
			c0.3,0.1,0.6,0.3,0.9,0.4c-0.1,0.3-0.3,0.6-0.4,0.9c-0.3-0.1-0.8-0.2-0.9-0.4C297.4,233.8,297.7,233.4,297.8,233.1z M297,165.7
			c0.1,0,0.3,0.2,0.4,0.3c-0.1,0.1-0.3,0.2-0.4,0.2c-0.1-0.1-0.2-0.2-0.4-0.3C296.7,165.9,296.8,165.7,297,165.7z M312.5,116.1
			c0.7-0.3,1.5-0.1,1.3,0.8c-0.1,0.6-0.8,1.1-1.3,1.4c-0.2,0.1-0.8-0.3-1.5-0.7C311.6,117,312,116.4,312.5,116.1z M308.6,119.2
			c0.2-0.1,0.6,0.2,0.9,0.3c-0.1,0.3-0.2,0.8-0.4,0.9c-0.2,0.1-0.6-0.2-0.9-0.3C308.3,119.8,308.4,119.3,308.6,119.2z M188.1,62.2
			c0.9-0.2,1.8-0.4,2.6-0.6c3.7,16.4,7.4,32.8,11.1,49.3C196,95,191.8,78.7,188.1,62.2z M202,115.8c-0.1-0.3-0.4-0.6-0.4-0.8
			c0-0.3,0.3-0.5,0.5-0.8c0.1,0.3,0.3,0.6,0.4,0.8C202.3,115.3,202.2,115.6,202,115.8z M215.9,117.2c-1.9-0.9-1.3-2.3-1.4-3.4
			c-0.5-15.8-1.8-31.5-3.2-47.3c-0.2-2.3-1.5-6.4,1.2-6.6c3.4-0.2,1.7,3.8,1.9,6c1,15.2,0.6,30.5,2.2,45.8
			C216.8,113.4,217.1,115.4,215.9,117.2z M241.2,100c-0.3-1-0.6-1.5-0.5-1.9c0-0.4,0.4-0.7,0.6-1.1c0.1,0.3,0.4,0.6,0.3,0.9
			C241.5,98.5,241.4,99,241.2,100z M242.3,116.9c-0.1,0-0.4-0.1-0.4-0.1c0-0.2,0.1-0.3,0.1-0.5c0.1,0,0.4,0.1,0.4,0.1
			C242.4,116.6,242.3,116.8,242.3,116.9z M243.4,112.6c-0.1-0.1-0.3-0.3-0.4-0.4c0.1-0.1,0.2-0.2,0.3-0.3c0.1,0.1,0.2,0.2,0.2,0.3
			C243.5,112.3,243.4,112.5,243.4,112.6z M256.8,115.5C256.8,115.5,256.8,115.5,256.8,115.5C256.8,115.6,256.8,115.6,256.8,115.5
			c-0.1,0.5-0.3,1-0.4,1.4C255.4,116.2,256.4,115.9,256.8,115.5C256.8,115.6,256.8,115.6,256.8,115.5
			C256.8,115.5,256.8,115.5,256.8,115.5c0.1-0.5,0.3-0.9,0.4-1.4C258.2,114.9,257.3,115.2,256.8,115.5z M258.7,112.3
			c0-2.4,1-3.7,2.3-4.9C261.2,109.3,260.5,110.8,258.7,112.3z M273.1,106.9c-0.1,0.2-0.2,0.3-0.3,0.5
			C272.9,107.2,273,107,273.1,106.9C273.1,106.9,273.1,106.9,273.1,106.9c0.1-0.5,0.3-1,0.4-1.4
			C274.5,106.2,273.5,106.5,273.1,106.9C273.1,106.9,273.1,106.9,273.1,106.9z M274.4,116.2c-0.2,0.1-0.6-0.2-0.9-0.3
			c0.1-0.3,0.3-0.6,0.4-0.9c0.3,0.1,0.6,0.3,0.9,0.4C274.6,115.6,274.6,116.1,274.4,116.2z M277.2,99.8c0.1-0.2,0.2-0.3,0.2-0.5
			c0.1-0.8,0.1-1.7,1.3-1.6c0.1,0,0.3,0.2,0.3,0.3c0.1,1.2-0.9,1.2-1.7,1.3C277.3,99.4,277.3,99.6,277.2,99.8z M278.6,110.7
			c-0.6,0.2-1-0.3-0.8-0.8c0.1-0.4,0.5-0.9,0.9-1.1c0.6-0.2,0.8,0.3,0.8,1C279.3,110.1,279,110.6,278.6,110.7z M283.4,105.4
			c-0.2,0.2-0.7,0.9-1.2,1c-0.8,0.2-1.4-0.4-1-1.2c0.2-0.5,0.9-1,1.5-1.2C283.2,103.9,283.6,104.3,283.4,105.4z M277.1,253.5
			c0,0.1-0.2,0.1-0.3,0.2c-0.1-0.1-0.1-0.2-0.2-0.3c0.2-0.1,0.3-0.2,0.5-0.3C277.1,253.2,277.2,253.4,277.1,253.5z M278.1,255.9
			c2.4,0.2,2.5,1.8,3.2,3.5C278.8,259.3,278.5,257.7,278.1,255.9z M282.7,263.6c-0.4-0.1-0.7-0.7-0.8-1.1c-0.1-0.5,0.1-1.1,0.8-0.8
			c0.4,0.1,0.6,0.6,0.9,0.9C283.6,263.4,283.2,263.8,282.7,263.6z M294.9,230.8c0.1,0.1,0.2,0.2,0.3,0.3c-0.1,0.1-0.2,0.2-0.3,0.2
			c-0.1,0-0.2-0.1-0.4-0.1C294.6,231.1,294.8,230.9,294.9,230.8z M289.3,113.4c0.4-0.4,0.7-0.7,1.1-1.1c0.1-0.2,0.2-0.3,0.3-0.5
			c-0.1,0.2-0.2,0.3-0.2,0.5C290.1,112.7,289.7,113,289.3,113.4c-0.1,0.2-0.2,0.3-0.3,0.5C289.2,113.7,289.3,113.5,289.3,113.4z
			 M286.1,125.3c-0.4,0.4-0.7,0.7-1.1,1.1c-0.1,0.2-0.2,0.3-0.3,0.5c0.1-0.2,0.2-0.3,0.3-0.5C285.4,126,285.7,125.7,286.1,125.3
			c0.1-2.1,1.2-3.2,3.2-3.3c0.2-0.1,0.3-0.3,0.5-0.4c-0.1,0.2-0.3,0.3-0.4,0.5C289.2,124.1,288.2,125.2,286.1,125.3z M290.6,247.2
			c-0.1-0.1-0.1-0.2-0.2-0.4c-0.4-0.4-0.7-0.7-1.1-1.1c-0.1-0.1-0.3-0.3-0.4-0.4c0.1,0,0.2,0,0.3,0.1c0.1,0.1,0.1,0.2,0.2,0.4
			c0.4,0.4,0.7,0.7,1.1,1.1c0.1,0.2,0.3,0.3,0.4,0.5C290.8,247.2,290.7,247.2,290.6,247.2z M295,269.1c-0.3-0.1-0.8-0.2-0.9-0.4
			c-0.1-0.2,0.2-0.6,0.3-0.9c0.3,0.1,0.8,0.2,0.9,0.4C295.4,268.5,295.1,268.8,295,269.1z M296.9,272.4c-0.1-0.4-0.3-0.7-0.4-1.1
			c0.3-0.1,0.6-0.3,0.8-0.2c0.2,0.1,0.2,0.5,0.4,0.8C297.4,272.1,297.1,272.3,296.9,272.4z M299.8,276.7c-0.5-0.3-1.2-0.9-1.3-1.5
			c-0.2-1,0.6-1.2,1.3-0.8c0.5,0.3,0.9,0.9,1.5,1.6C300.5,276.4,300,276.8,299.8,276.7z"/>
		<path display="inline" fill="#C6823C" d="M137.6,70.2c-5.4,1.1-10.8,2.1-15.7,4.7c0.2,0.2,0.3,0.4,0.5,0.6c4.9,1.4,7,5.8,9.9,9.3
			c4.9,6,9.7,11.9,14.6,17.9c1.4,1.7,2.5,3.5,2.7,5.8c4-0.4,7.9-0.9,11.9-1.3c-5.2-10.5-12.6-19.5-18.8-29.3
			C140.9,75.2,139.2,72.7,137.6,70.2z"/>
		<path display="inline" fill="#C6823C" d="M122.4,75.5c-0.2-0.2-0.3-0.4-0.5-0.6c-0.3,0-0.5,0.2-0.6,0.4c-1.9,2.2-4.6,3.6-5.6,6.5
			c8.8,7.6,15.9,16.7,24,25c1.5,1.6,2.7,3.3,5,3.6c1.6-0.1,2.9-0.6,4-1.8c-6.4-7.4-12.9-14.8-19-22.3
			C126.8,83,122.7,80.4,122.4,75.5z"/>
		<path display="inline" fill="#AD7236" d="M176.5,62.5c-1.1,0-2.2,0-3.3,0c3.5,12.5,8.8,24.3,13,36.5c2.1,6,4.5,11.9,6.8,17.8
			c0.4-0.1,0.8-0.3,1.3-0.4c-2.7-7.9-5.3-15.8-8-23.7C182.9,82.7,178.9,72.8,176.5,62.5z"/>
		<path display="inline" fill="#AD7236" d="M295.5,85.8c-4,5.2-8.3,10.1-11.5,15.9c1.9,0.8,2.6-0.2,3.2-1c4.5-5.6,9.4-11,13.4-16.9
			c4.1-6.1,10.2-10.8,12.6-18c-0.6-0.1-1.2-0.2-1.9-0.3C305.2,71.6,300.7,79,295.5,85.8z"/>
		<path display="inline" fill="#AD7236" d="M280.8,66.3c-5.4,11-11,21.9-16.4,32.9c-0.7,1.5-2.2,2.9-1.2,6.5
			c7.5-15.7,16.6-29.2,22.8-44.2c-1.2-0.2-2.3-0.5-3.5-0.7C283.1,63,281.7,64.6,280.8,66.3z"/>
		<path display="inline" fill="#DD8C3C" d="M137.6,70.2c1.7,2.5,3.4,5.1,5,7.6c6.3,9.8,13.7,18.8,18.8,29.3c1.4,0.7,2.8,1,4.3,0.7
			c-9-12.4-17-25.4-25.1-38.4C139.6,69.7,138.6,69.9,137.6,70.2z"/>
		<path display="inline" fill="#DD8C3C" d="M280.3,95.5c4.1-2.5,6.1-6.8,8.5-10.6c4.5-7,10.6-13.1,13.6-21.2c-1.1,0-2.1-0.1-3.2-0.1
			C293.6,74.6,285.7,84.3,280.3,95.5z"/>
		<path display="inline" fill="#DD8C3C" d="M256.7,103.9c6.5-14.5,13-29,19.5-43.5c-1.1-0.1-2.1-0.2-3.2-0.3
			C268.1,74.9,261.2,88.9,256.7,103.9z"/>
		<path display="inline" fill="#DD8C3C" d="M201.6,59.4c0.3,1,0.8,2,1,3.1c1.9,13,3.9,26,5.8,39c0.4,0,0.7-0.1,1.1-0.1
			c-1.6-14-3.1-28-4.7-42C203.7,59.3,202.6,59.4,201.6,59.4z"/>
		<path display="inline" fill="#DD8C3C" d="M225.4,58.3c0.6,14.7-2.3,29.3-0.5,44c0.3-14.7,3.3-29.2,2.6-44
			C226.8,58.3,226.1,58.3,225.4,58.3z"/>
		<path display="inline" fill="#926D49" d="M213.4,318.3C213.4,318.3,213.4,318.4,213.4,318.3c-0.2,1.5-0.4,2.9-0.5,4.3
			c-0.5,6.9-3.7,13.4-2.8,20.5c0.4,0.1,0.8,0.1,1.2,0.2c2.8-2.5,3-5.8,3.2-9.2c0.2-5.3,1.2-10.5,2.2-15.7l0,0
			C215.6,318.3,214.5,318.3,213.4,318.3z"/>
		<path display="inline" fill="#DD8C3C" d="M181.9,61.5c-1.1,0.4-2.1,0.7-3.2,1.1c4.2,12.6,7.7,25.5,13,37.7l0,0c0-4.2-1.7-8-2.7-12
			C186.8,79.4,182.8,70.9,181.9,61.5z"/>
		<path display="inline" fill="#926D49" d="M262.2,315.1c-0.9,0-1.7,0.2-2.2,1.1c1,5.9,2.4,11.7,3,17.6c0.3,2.7,1.6,4,3.6,5.2
			c0.4,0,0.7-0.1,1.1-0.1c-1.4-7.9-4-15.5-4.4-23.6C262.9,315.2,262.6,315.2,262.2,315.1z"/>
		<path display="inline" fill="#DD8C3C" d="M242,93.9c3.8-11.7,7.1-23.5,9.3-35.6c-1.1,0-2.1,0-3.2,0
			C247.6,70.4,243.1,81.9,242,93.9z"/>
		<path display="inline" fill="#AD7236" d="M228.6,114.4c1.9-6.9,3-13.8,3.9-20.8c1.6-11.9,3.2-23.7,4.8-35.6c-1.1,0-2.1,0-3.2-0.1
			C232.2,76.8,230.4,95.6,228.6,114.4z"/>
		<path display="inline" fill="#C68542" d="M375.1,239.3c1.7-3.1,2.7-6.4,3.1-9.9c-0.3,0.4-0.7,0.7-1,1.1c-2.3,4.2-5.5,1.7-8,0.7
			c-19.4-6.8-38.6-13.8-58-20.7c-1.6-0.6-3.2-1.7-5-1c0,1.4,1.1,1.3,1.9,1.6c21.1,8.3,42.2,16.5,63.3,24.8
			C373,236.6,374.9,237,375.1,239.3z"/>
		<path display="inline" fill="#AD7236" d="M383.1,177.3c0.6-1.5,0.6-2.9-0.4-4.3c-26.7,1.6-53.5,3.2-80.2,4.8
			C329.5,179.6,356.3,176.8,383.1,177.3z"/>
		<path display="inline" fill="#AD7236" d="M383.4,203.4c0-0.7,0-1.5,0-2.2c-0.8-0.3-1.6-0.9-2.5-1c-20.4-2.6-40.8-5.3-61.3-7.5
			c-4.2-0.4-8.5-2.2-12.9-0.6c21,3.6,41.9,6.9,63,10.1C374.3,203,378.7,204.6,383.4,203.4z"/>
		<path display="inline" fill="#AD7236" d="M378.3,149.1c0.1-0.4,0-0.7-0.2-1c-1.1-0.6-2.2-0.8-3.6-0.4
			c-19.2,4.5-38.4,8.8-57.7,13.2c-5.2,1.2-10.4,2.5-15.6,3.7c1,0.8,2,1,2.8,0.8c20-4,40.1-7.8,60.1-12.1
			C368.9,152.2,374.3,152.8,378.3,149.1z"/>
		<path display="inline" fill="#C68542" d="M364.3,263.2c1.6-1.6,2.5-3.5,3.1-5.6c-1.8,0.1-3.6-0.1-5.2-1
			c-14.8-8.5-29.6-16.9-44.5-25.3c-1.8-1-3.6-2.7-7.5-2.1c12,7.3,22.9,13.6,33.6,20.5C350.6,254.1,358.3,257.3,364.3,263.2z"/>
		<path display="inline" fill="#AD7236" d="M378.2,229.4c0.2-0.2,0.3-0.5,0.2-0.8c-0.9-1.5-2.5-2-4-2.4c-15.1-4.6-30-9.5-45.2-13.8
			c-5.6-1.6-11-4.6-17-4.6l0,0c0.9,0.6,1.7,1.4,2.6,1.8c20.8,7,41.6,14,62.4,21C377.5,230.1,377.9,229.8,378.2,229.4z"/>
		<path display="inline" fill="#AD7236" d="M337.1,298.8c0.4-0.4,0.7-0.7,1.1-1.1c0.3-0.3,0.5-0.5,0.8-0.8c-0.8-0.4-1.7-0.7-2.3-1.4
			c-11.2-12.1-22.4-24.3-33.6-36.5c-1.9-2.1-3.4-4.8-6.7-5.5c-0.3,1.8,0.7,2.4,1.4,3.2c6.9,8,13.8,16,20.8,24
			c5.7,6.4,11.5,12.7,17.3,19.1C336.3,299.5,336.7,299.2,337.1,298.8z"/>
		<path display="inline" fill="#AD7236" d="M368.6,123c0-0.3-0.1-0.6-0.3-0.9c-1,0.2-2.2,0.2-3.1,0.6c-11.4,4.8-22.9,9.6-34.3,14.4
			c-7.8,3.3-15.7,6.7-23.9,10.2c1.8,1,2.8,0.7,3.8,0.3c18.2-7.1,36.5-14.3,54.7-21.4C367,125.6,368.5,125,368.6,123z"/>
		<path display="inline" fill="#AD7236" d="M353.7,99.1c-1.3,0.5-2.8,0.8-4,1.5c-14.9,9.7-29.8,19.4-44.7,29.1
			c-1.1,0.7-2.7,1.3-2.6,3.1l0,0c1.9-0.2,3.3-1.2,4.9-2.2c9-5.5,18.1-10.9,27.1-16.6c7.1-4.5,14.9-7.8,21.1-13.7
			C355.3,99.4,354.5,99.2,353.7,99.1z"/>
		<path display="inline" fill="#AD7236" d="M355.8,275.2c-1.6-0.1-3.1-0.5-4.5-1.6c-8.2-6.5-16.3-13-24.7-19.2
			c-4.9-3.6-9.3-7.9-15.2-10.7c-0.1,2.2,1.1,2.9,2,3.7c5.3,4.3,10.5,8.7,16,12.8c8.3,6.2,15.8,13.5,24.6,19
			C355.5,278.2,355.5,276.6,355.8,275.2z"/>
		<path display="inline" fill="#AD7236" d="M337,78.8L337,78.8c-2.9-0.6-4.2,1.6-5.9,3.1c-8.7,8-17.5,16-26.2,24.1
			c-3.5,3.3-6.9,6.8-10.7,10.6c2.8,1,3.4-0.4,4.3-1.1c12.1-10.7,24.2-21.4,36.3-32.1C336.3,82.2,337.3,80.9,337,78.8z"/>
		<path display="inline" fill="#AD7236" d="M367.8,255.6c1-0.4,1-1.2,0.9-2c-16.4-10-33.6-18.5-51.2-26.4l0,0
			c0.2,2.3,2.2,2.6,3.7,3.4c6.1,3.4,12.1,7.1,18.4,10.2C349.1,245.7,357.9,251.8,367.8,255.6z"/>
		<path display="inline" fill="#DD8C3C" d="M372.6,245.8c0.4-1.1,0.8-2.2,1.2-3.4c-1.6,0.1-3.2-0.1-4.7-0.8
			c-12.7-5.5-25.3-11.1-38.1-16.3c-4-1.6-7.8-4.4-13.6-4.5c1.8,1.1,2.5,1.6,3.3,2c15.6,7.3,31.3,14.5,46.9,21.8
			C369.1,245.4,370.8,245.8,372.6,245.8z"/>
		<path display="inline" fill="#DD8C3C" d="M381.4,163.3c-21.6,2.6-43.3,5.2-65.9,7.9c3.3,1.2,5.6,0.9,7.8,0.7
			c19.6-1.8,39.2-3.7,58.9-5.5C381.9,165.3,381.6,164.3,381.4,163.3z"/>
		<path display="inline" fill="#DD8C3C" d="M380.9,217.7c-0.5-0.2-1-0.5-1.5-0.7c-19.1-4.5-38.3-9.1-57.5-13.5
			c-0.7-0.2-1.7-0.5-2.3,0.8c1.6,0.5,3.1,0.9,4.7,1.3c18.7,5.1,37.3,10.1,56,15.1C380.5,219.7,380.7,218.7,380.9,217.7z"/>
		<path display="inline" fill="#DD8C3C" d="M375.8,140.5c-0.4-1.1-0.8-2.3-1.2-3.4c-19.5,5.8-38.9,11.6-58.4,17.4
			c0.1,0.4,0.2,0.9,0.4,1.3c7.1-1.9,14.1-3.8,21.2-5.6C350.4,147,362.9,142.8,375.8,140.5z"/>
		<path display="inline" fill="#DD8C3C" d="M382.7,190.4c-8.4-0.7-17-0.5-25.3-1.4c-7.9-0.9-15.8,0-23.6-1.6
			c-4.7-1-9.9-0.2-14.8-0.2c0,0.2,0,0.5,0,0.7c21.2,1.9,42.5,3.8,63.7,5.8C382.7,192.6,382.7,191.5,382.7,190.4z"/>
		<path display="inline" fill="#DD8C3C" d="M362.9,112.3c-16.4,8.3-32.8,16.5-49.2,24.8c0.2,0.5,0.4,0.9,0.7,1.4
			c16.7-7.7,33.5-15.4,50.2-23.1C364,114.3,363.5,113.3,362.9,112.3z"/>
		<path display="inline" fill="#AD7236" d="M285.8,266.1c-0.3-0.5-0.9-0.5-1.8,0.4c3.4,5.6,6.7,11.5,10.3,17.2
			c5.3,8.3,9.4,17.3,15.7,25c0.8,0,1.5-0.1,2.3-0.1c-0.5-1.2-0.7-2.5-1.4-3.5C302.6,292.1,294.2,279.1,285.8,266.1z"/>
		<polygon display="inline" fill="#AD7236" points="264.4,259.8 264.4,259.8 264.4,259.8 		"/>
		<path display="inline" fill="#AD7236" d="M264.4,259.8c0.5,7,4.3,12.8,6.5,19.2c3.3,9.8,7.2,19.5,10.9,29.2
			c0.7,1.9,1.3,3.7,1.1,5.8c0.4,0,0.7,0,1.1,0c0.5-0.9,1.4-1,2.2-1.1c-1.5-8.4-5.8-15.8-9-23.6C273.1,279.4,270,269.1,264.4,259.8z"
			/>
		<path display="inline" fill="#AD7236" d="M214.4,65.8c-0.1-2.1,1.5-6.2-1.9-6c-2.7,0.2-1.4,4.4-1.2,6.6
			c1.4,15.7,2.7,31.5,3.2,47.3c0,1.1-0.5,2.6,1.4,3.4c1.2-1.8,0.9-3.8,0.7-5.6C215,96.4,215.4,81.1,214.4,65.8z"/>
		<path display="inline" fill="#DD8C3C" d="M342.5,293.3c0.8-1,1.5-2,2.3-3c-10.5-12.4-23.5-22.1-35.2-34.6
			c-0.5,3.7,1.4,4.5,2.6,5.7c9,9.1,18,18.1,27.1,27.1C340.6,290,342.4,291,342.5,293.3z"/>
		<polygon display="inline" fill="#AD7236" points="148.3,67.8 148.3,67.8 148.3,67.8 		"/>
		<path display="inline" fill="#AD7236" d="M151.9,69.5c-0.9-1.6-2.2-1.7-3.6-1.8c6.5,14.1,15.1,27,24,39.6
			C166,94.5,158.9,82,151.9,69.5z"/>
		<path display="inline" fill="#AD7236" d="M188.1,62.2c3.6,16.5,7.9,32.8,13.7,48.7c-3.7-16.4-7.4-32.8-11.1-49.3
			C189.9,61.9,189,62,188.1,62.2z"/>
		<path display="inline" fill="#DD8C3C" d="M358.9,271c1.6-1.1,3.1-2.4,2.8-4.7c-2.3,0.3-4.1-0.7-5.9-2c-7.1-4.8-14.3-9.6-21.5-14.3
			c-2.3-1.5-4.6-3.3-8.5-3.9c1,1.3,1.3,2,1.9,2.3c6.2,4.3,12.7,8.2,18.5,12.8C350.4,264.6,355.6,266.6,358.9,271z"/>
		<path display="inline" fill="#DD8C3C" d="M346.8,89.6c-0.7,0.8-1.2,1.8-2.1,2.4c-7.7,5.8-15.6,11.4-23.2,17.3
			c-2,1.6-5,2.5-6.3,7.1c12.1-8.5,23-16.1,33.9-23.7C348.4,91.6,347.6,90.6,346.8,89.6z"/>
		<path display="inline" fill="#DD8C3C" d="M274,266.1c2.1,7.3,5.5,14,8.3,20.9c3.4,8.3,8.8,15.8,10.4,24.8c1.5,0,3.2,0.6,4.3-1
			c-5.2-8-8.8-16.9-13.2-25.4C280.4,279,277.2,272.5,274,266.1z"/>
		<path display="inline" fill="#DD8C3C" d="M325.5,73.4c-6.7,7-13.4,14.1-20.1,21.2c-1.1,1.2-3,2-2.4,5.3c9.6-9.3,18.6-18,27.6-26.7
			c-1.1-1-2.3-2-3.4-3C327.3,71.6,326.4,72.5,325.5,73.4z"/>
		<path display="inline" fill="#DD8C3C" d="M301.3,279.3c6.1,9.1,12.3,18.2,18.4,27.3c1.1,0,2.1,0,3.2,0
			c-5.5-10.3-13.3-19-20.3-28.2C302.2,278.6,301.8,279,301.3,279.3z"/>
		<path display="inline" fill="#926D49" d="M286.2,312.9c-0.9,0.1-1.8,0.3-2.2,1.1c1.7,4.2,3.6,8.4,5.1,12.7
			c0.6,1.8,1.3,2.8,3.3,2.3c-0.1-5.9-4-10.5-5.2-16C286.8,313,286.5,312.9,286.2,312.9z"/>
		<polygon display="inline" fill="#AD7236" points="263.3,257.6 263.3,257.6 263.3,257.6 		"/>
		<path display="inline" fill="#AD7236" d="M262.2,252c-1.2-3.5-3.6-6.6-3.2-10.6c-1.1,0.7-2.2,1.4-3.3,2.1c3.1,2.3,3.2,6.1,4.7,9.2
			c0.8,1.7,1.3,3.7,2.9,4.9C263.4,255.6,262.9,253.9,262.2,252z"/>
		<path display="inline" fill="#AD7236" d="M294.8,137.2L294.8,137.2c3.4,0,5.6-1.9,7.6-4.3l0,0C299,132.9,296.7,134.8,294.8,137.2z
			"/>
		<path display="inline" fill="#AD7236" d="M304.4,221c2.3,2,3.8,3.2,6.4,2.5C309,221.8,307.5,220.7,304.4,221z"/>
		<path display="inline" fill="#AD7236" d="M305.7,148.5c-2.8,0-4.3,1.1-6.5,2.8C302,151.1,303.9,150.8,305.7,148.5z"/>
		<path display="inline" fill="#AD7236" d="M215.6,128.5c0.4,0,0.8,0,1.1-0.1c0-2.4,0-4.9,0-7.3c-0.4,0-0.8,0-1.1,0.1
			C215.6,123.6,215.6,126.1,215.6,128.5z"/>
		<path display="inline" fill="#AD7236" d="M258.7,112.3c1.8-1.6,2.5-3,2.3-4.9C259.7,108.6,258.7,109.9,258.7,112.3z"/>
		<path display="inline" fill="#C68542" d="M306.6,225.5c-0.2,0-0.5,0.6-0.4,0.8c0.7,1.3,1.7,2,3.5,1.4
			C309.1,226.1,308,225.5,306.6,225.5z"/>
		<path display="inline" fill="#AD7236" d="M278.1,255.9c0.4,1.8,0.7,3.4,3.2,3.5C280.6,257.7,280.5,256.1,278.1,255.9z"/>
		<path display="inline" fill="#AD7236" d="M312.2,224.5c1.5,2.6,3.4,2.7,5.3,2.7c0,0,0,0,0,0C316.3,225.7,314.6,225.1,312.2,224.5z
			"/>
		<path display="inline" fill="#AD7236" d="M308.2,240.7c-0.8-0.2-1.4,0.4-1,1.2c0.2,0.5,0.9,1,1.5,1.2c0.5,0.2,0.9-0.3,0.8-1.3
			C309.2,241.5,308.8,240.9,308.2,240.7z"/>
		<path display="inline" fill="#AD7236" d="M286.1,125.3L286.1,125.3c2.1-0.1,3.2-1.2,3.3-3.2l0,0
			C287.3,122.2,286.2,123.2,286.1,125.3z"/>
		<path display="inline" fill="#DD8C3C" d="M312.5,116.1c-0.5,0.3-0.9,0.9-1.5,1.6c0.7,0.3,1.3,0.8,1.5,0.7c0.5-0.3,1.2-0.9,1.3-1.4
			C314.1,116,313.2,115.8,312.5,116.1z"/>
		<path display="inline" fill="#DD8C3C" d="M299.8,274.4c-0.7-0.4-1.5-0.2-1.3,0.8c0.1,0.6,0.8,1.1,1.3,1.5c0.2,0.1,0.8-0.3,1.5-0.7
			C300.6,275.3,300.3,274.7,299.8,274.4z"/>
		<path display="inline" fill="#AD7236" d="M301.8,205.1c1.8,0.6,3.2,1.1,4.6,1.5C305.5,205.1,304.2,203.9,301.8,205.1z"/>
		<path display="inline" fill="#AD7236" d="M282.7,104c-0.6,0.2-1.3,0.7-1.5,1.2c-0.3,0.7,0.2,1.4,1,1.2c0.6-0.2,1-0.8,1.2-1
			C283.6,104.3,283.2,103.9,282.7,104z"/>
		<path display="inline" fill="#AD7236" d="M282.7,261.7c-0.6-0.2-0.9,0.3-0.8,0.8c0.1,0.4,0.4,0.9,0.8,1.1c0.5,0.2,0.9-0.2,0.9-1
			C283.3,262.4,283.1,261.9,282.7,261.7z"/>
		<path display="inline" fill="#AD7236" d="M278.7,108.8c-0.4,0.1-0.7,0.6-0.9,1.1c-0.2,0.6,0.3,1,0.8,0.8c0.4-0.1,0.6-0.6,0.8-0.9
			C279.5,109.1,279.3,108.6,278.7,108.8z"/>
		<path display="inline" fill="#DD8C3C" d="M308.6,119.2c-0.2,0.1-0.3,0.6-0.4,0.9c0.3,0.1,0.7,0.4,0.9,0.3c0.2-0.1,0.3-0.6,0.4-0.9
			C309.2,119.5,308.8,119.2,308.6,119.2z"/>
		<path display="inline" fill="#DD8C3C" d="M294.5,267.8c-0.1,0.3-0.4,0.7-0.3,0.9c0.1,0.2,0.6,0.3,0.9,0.4c0.1-0.3,0.4-0.7,0.3-0.9
			C295.2,268,294.8,267.9,294.5,267.8z"/>
		<path display="inline" fill="#AD7236" d="M273.5,115.8c0.3,0.1,0.7,0.4,0.9,0.3c0.2-0.1,0.3-0.6,0.4-0.9c-0.3-0.1-0.6-0.3-0.9-0.4
			C273.7,115.2,273.6,115.5,273.5,115.8z"/>
		<path display="inline" fill="#DD8C3C" d="M320.2,242.7c0.1,0.2,0.6,0.3,0.9,0.4c0.1-0.3,0.3-0.6,0.4-0.9c-0.3-0.1-0.6-0.3-0.9-0.4
			C320.4,242.1,320.1,242.4,320.2,242.7z"/>
		<path display="inline" fill="#AD7236" d="M297.5,234c0.1,0.2,0.6,0.3,0.9,0.4c0.1-0.3,0.3-0.6,0.4-0.9c-0.3-0.1-0.6-0.3-0.9-0.4
			C297.7,233.4,297.4,233.8,297.5,234z"/>
		<path display="inline" fill="#AD7236" d="M302.4,237L302.4,237c0.1,0.8,0.1,1.7,1.3,1.7c0.1,0,0.3-0.2,0.3-0.3
			C304.1,237.2,303.2,237.2,302.4,237z"/>
		<path display="inline" fill="#DD8C3C" d="M240.6,98.1c0,0.4,0.2,0.9,0.5,1.9c0.2-1.1,0.4-1.5,0.4-2c0-0.3-0.2-0.6-0.3-0.9
			C241,97.4,240.6,97.8,240.6,98.1z"/>
		<path display="inline" fill="#DD8C3C" d="M317.2,239.6c-0.1,0.3-0.4,0.7-0.4,0.9c0.1,0.2,0.6,0.3,0.9,0.4c0.1-0.3,0.4-0.7,0.4-0.9
			C318,239.8,317.6,239.7,317.2,239.6z"/>
		<path display="inline" fill="#DD8C3C" d="M323.4,244.6c0.2,0.2,0.3,0.5,0.5,0.7c0.3-0.1,0.7-0.2,0.8-0.4c0.1-0.2-0.2-0.5-0.3-0.8
			C324.1,244.3,323.8,244.5,323.4,244.6z"/>
		<path display="inline" fill="#DD8C3C" d="M296.5,271.4c0.1,0.4,0.3,0.7,0.4,1.1c0.3-0.1,0.5-0.3,0.8-0.4c-0.1-0.3-0.2-0.7-0.4-0.8
			C297.1,271.1,296.7,271.3,296.5,271.4z"/>
		<path display="inline" fill="#DD8C3C" d="M278.7,97.6c-1.2-0.1-1.2,0.9-1.3,1.6l0,0c0.8-0.1,1.7-0.1,1.7-1.3
			C279.1,97.9,278.9,97.6,278.7,97.6z"/>
		<path display="inline" fill="#AD7236" d="M310,206.9c-0.1,0-0.2,0.3-0.3,0.4c0.8,0.1,1.6,0.3,2.4,0.4l0,0
			C311.6,206.9,310.9,206.6,310,206.9z"/>
		<path display="inline" fill="#DD8C3C" d="M191.7,100.4L191.7,100.4c0.1,0.8,0.3,1.6,0.4,2.4c0.1-0.1,0.4-0.2,0.4-0.3
			C192.9,101.5,192.5,100.9,191.7,100.4z"/>
		<path display="inline" fill="#DD8C3C" d="M311.9,156.2c0.3,0.2,0.5,0.3,0.8,0.5c0.3-0.1,0.6-0.3,0.9-0.4c-0.3-0.2-0.5-0.5-0.8-0.5
			C312.4,155.8,312.1,156.1,311.9,156.2z"/>
		<path display="inline" fill="#AD7236" d="M201.6,115c0,0.3,0.2,0.6,0.4,0.8c0.2-0.3,0.3-0.5,0.5-0.8c-0.1-0.3-0.3-0.6-0.4-0.8
			C201.9,114.5,201.6,114.7,201.6,115z"/>
		<path display="inline" fill="#AD7236" d="M276.6,253.3c0.1,0.1,0.1,0.2,0.2,0.3c0.1-0.1,0.3-0.1,0.3-0.2c0-0.1,0-0.3,0-0.4
			C276.9,253.2,276.8,253.2,276.6,253.3z"/>
		<polygon display="inline" fill="#AD7236" points="263.3,257.6 263.3,257.7 263.3,257.6 		"/>
		<polygon display="inline" fill="#AD7236" points="264.4,259.8 264.4,259.8 264.4,259.8 		"/>
		<path display="inline" fill="#AD7236" d="M263.3,257.7c0,0.9,0.2,1.7,1.1,2.2C264.4,258.9,264.2,258.1,263.3,257.7z"/>
		<path display="inline" fill="#AD7236" d="M256.4,117c0.1-0.5,0.3-0.9,0.4-1.4C256.4,115.9,255.4,116.2,256.4,117z"/>
		<polygon display="inline" fill="#AD7236" points="256.8,115.5 256.8,115.6 256.8,115.6 		"/>
		<path display="inline" fill="#AD7236" d="M241.9,116.8c0,0.1,0.2,0.1,0.4,0.1c0.1-0.2,0.1-0.3,0.1-0.5c0-0.1-0.2-0.1-0.4-0.1
			C242,116.5,241.9,116.6,241.9,116.8z"/>
		<polygon display="inline" fill="#AD7236" points="256.8,115.6 256.8,115.5 256.8,115.5 		"/>
		<path display="inline" fill="#AD7236" d="M257.2,114.1c-0.1,0.5-0.3,0.9-0.4,1.4C257.3,115.2,258.2,114.9,257.2,114.1z"/>
		<path display="inline" fill="#AD7236" d="M294.5,231.2c0.1,0,0.2,0.1,0.4,0.1c0.1-0.1,0.2-0.2,0.3-0.2c-0.1-0.1-0.2-0.2-0.3-0.3
			C294.8,230.9,294.6,231.1,294.5,231.2z"/>
		<path display="inline" fill="#AD7236" d="M243,112.2c0.1,0.1,0.3,0.3,0.4,0.4c0-0.1,0.1-0.2,0.1-0.4c-0.1-0.1-0.2-0.2-0.2-0.3
			C243.2,112,243.1,112.1,243,112.2z"/>
		<path display="inline" fill="#DD8C3C" d="M309.7,235.3c0,0,0.1,0.3,0.1,0.4c0.2,0,0.3-0.1,0.5-0.2c0,0-0.1-0.3-0.1-0.4
			C310,235.2,309.8,235.2,309.7,235.3z"/>
		<polygon display="inline" fill="#DD8C3C" points="273.1,106.9 273.1,106.9 273.1,106.9 		"/>
		<path display="inline" fill="#DD8C3C" d="M273.5,105.5c-0.1,0.5-0.3,0.9-0.4,1.4C273.5,106.5,274.5,106.2,273.5,105.5z"/>
		<path display="inline" fill="#AD7236" d="M300,191.2c0.2,0,0.3-0.1,0.6-0.2c-0.3-0.1-0.5-0.2-0.7-0.2
			C299.9,190.9,300,191.1,300,191.2z"/>
		<path display="inline" fill="#AD7236" d="M296.5,166c0.1,0.1,0.2,0.2,0.4,0.3c0.1-0.1,0.3-0.2,0.4-0.2c-0.1-0.1-0.2-0.3-0.4-0.3
			C296.8,165.7,296.7,165.9,296.5,166z"/>
		<path display="inline" fill="#AD7236" d="M290.4,246.8c0.1,0.1,0.1,0.3,0.2,0.4c0.1,0.1,0.2,0.1,0.3,0.1
			C290.7,247.1,290.6,246.9,290.4,246.8C290.4,246.8,290.4,246.8,290.4,246.8z"/>
		<path display="inline" fill="#AD7236" d="M289.3,245.7c0.4,0.4,0.7,0.7,1.1,1.1c0,0,0,0,0,0C290.1,246.4,289.7,246.1,289.3,245.7
			L289.3,245.7z"/>
		<path display="inline" fill="#AD7236" d="M288.9,245.3c0.1,0.1,0.3,0.3,0.4,0.4l0,0c-0.1-0.1-0.1-0.3-0.2-0.4
			C289.1,245.3,289,245.3,288.9,245.3z"/>
		<path display="inline" fill="#AD7236" d="M285,126.4L285,126.4c0.4-0.4,0.7-0.7,1.1-1.1c0,0,0,0,0,0
			C285.7,125.7,285.4,126,285,126.4z"/>
		<path display="inline" fill="#AD7236" d="M301.9,236.6c0.1,0.1,0.3,0.3,0.4,0.4l0,0c-0.1-0.1-0.1-0.3-0.2-0.4
			C302.1,236.6,302,236.6,301.9,236.6z"/>
		<path display="inline" fill="#DD8C3C" d="M289.1,113.8c0.1-0.2,0.2-0.3,0.3-0.5l0,0C289.3,113.5,289.2,113.7,289.1,113.8z"/>
		<path display="inline" fill="#DD8C3C" d="M289.3,113.4L289.3,113.4c0.4-0.4,0.7-0.7,1.1-1.1l0,0
			C290.1,112.7,289.7,113,289.3,113.4z"/>
		<path display="inline" fill="#FEF8F6" d="M332.8,303.4c0.8,0.6,0.9,0.2,0.9-0.5C333.2,302.9,332.9,303.1,332.8,303.4z"/>
		<path display="inline" fill="#DD8C3C" d="M290.4,112.3c0.1-0.2,0.2-0.3,0.2-0.5C290.6,112,290.5,112.1,290.4,112.3L290.4,112.3z"
			/>
		<path display="inline" fill="#AD7236" d="M294.5,137.7c0.1-0.2,0.2-0.3,0.3-0.5l0,0C294.7,137.4,294.6,137.6,294.5,137.7z"/>
		<path display="inline" fill="#DD8C3C" d="M272.8,107.3c0.1-0.2,0.2-0.3,0.3-0.5l0,0C273,107,272.9,107.2,272.8,107.3z"/>
		<path display="inline" fill="#AD7236" d="M289.4,122.1c0.1-0.2,0.3-0.3,0.4-0.5C289.6,121.8,289.5,121.9,289.4,122.1
			C289.3,122,289.4,122.1,289.4,122.1z"/>
		<path display="inline" fill="#AD7236" d="M284.8,126.9c0.1-0.2,0.2-0.3,0.3-0.5l0,0C284.9,126.6,284.8,126.7,284.8,126.9z"/>
		<path display="inline" fill="#DD8C3C" d="M277.2,99.8c0.1-0.2,0.2-0.3,0.3-0.5l0,0C277.3,99.4,277.3,99.6,277.2,99.8z"/>
		<path display="inline" fill="#C6823C" d="M148.4,232.7C148.4,232.7,148.3,232.7,148.4,232.7C148.3,232.7,148.3,232.7,148.4,232.7
			C148.3,232.7,148.3,232.7,148.4,232.7C148.4,232.7,148.4,232.7,148.4,232.7z"/>
		<circle display="inline" fill="#C6823C" cx="146.2" cy="233.8" r="0"/>
		<path display="inline" fill="#C6823C" d="M270.9,279c-2.2-6.4-6-12.3-6.5-19.2c-0.9-0.5-1.1-1.3-1.1-2.2c-1.6-1.3-2.1-3.2-2.9-5
			c-1.5-3.1-1.6-6.9-4.7-9.2c-6,3.1-12.2,5.4-18.7,7c0.1,2.3,0.2,4.5,0.4,6.8c-0.3,0-0.7,0-1,0.1c0-2.2,0-4.4,0-6.6
			c-10,0.7-19.9,1.4-29.8-1.9c-26.8-8.9-43.1-32-44.1-59.1c-0.2-6.9,2.5-13.3,3.6-20c-8.4,0.7-16.5-0.3-24-4.5
			c-3.9,1.8-7.2-0.7-10.6-1.8c-16.2-5.4-32.3-11.1-48.4-16.7c-1.8-0.6-4.7-0.7-4-4c-0.1-0.1-0.3-0.3-0.4-0.4
			c-1.4,3.2-2.6,6.4-2.7,10c9.5,1.4,18.3,5.2,27.4,7.8c10.8,3,21.5,6.5,31.8,11c-8.4-2.3-16.8-4.7-25.3-6.8c-11.7-2.9-23-6.9-35-8.7
			c-1.8,7.5-3.3,15-3.2,22.8c24.1,3,48.2,6.1,72.3,9.1c-24.2-0.5-48.2-4.5-72.4-4.8c0.1,7.6-1.3,15.3,0.9,22.8
			c19.6-0.4,39.2-1.6,58.7-3.2c4.6-0.4,9.3-0.1,13.9,0.3c-24.2,1.8-48.2,5.2-72.4,6.1c-0.3,5.3,1.4,10.3,2.9,15.2
			c0.9-3.8,4.5-2.6,6.7-3c22.2-3.9,44.5-7.5,66.8-11.1c1.2-0.2,2.4,0,3.7,0.8c-15.1,3-30.1,6-45.2,8.8c-10.6,2-20.9,5-31.7,5.4
			c-0.3,2.8,0.7,5.3,2.2,7.6c20-4.7,40-9.4,60.1-14c0.5-0.1,1,0.1,3.2,0.4c-21.8,5.9-42,11.4-62.2,16.9c-0.1,2.1,1.1,3.7,1.7,5.6
			c22.3-6.5,44.5-13.1,66.8-19.6c0.1,0.4,0.3,0.8,0.4,1.2c-2.3,1-4.6,2.1-6.9,2.9c-18,6-36.1,12-54.1,17.9c-1.5,0.5-3.2,0.5-4.7,0.7
			c0,1.2,0.3,2.4,1.2,3.3c13.4-4.6,26.9-9.1,40.3-13.7c7.6-2.6,15.1-5.3,22.7-7.9c0.2,0.4,0.3,0.9,0.5,1.3c-4.8,2-9.5,4.1-14.3,5.9
			c-15.1,5.8-30.2,11.6-45.4,17.3c-0.8,0.3-1.8,0.3-2.7,0.4c0.5,2.2,1.7,4,3.4,5.4c9-0.9,16.4-6,24.5-9.2
			c10.5-4.1,20.8-8.8,31.2-13.2c0.8-0.3,1.8-0.2,2.6-0.3c0,0,0,0,0,0c0,0,0,0,0,0c0.5-0.9,1.3-1.1,2.2-1.1c0,0,0,0,0,0c0,0,0,0,0,0
			c0.4-0.3,0.7-0.5,1.1-0.8c0.3,1.3-0.7,0.6-1.1,0.8c0,0,0,0,0,0c0,0,0,0,0,0c-0.5,0.9-1.3,1.1-2.2,1.1c0,0,0,0,0,0c0,0,0,0,0,0
			c-0.5,1.2-1.6,1.7-2.8,2.2c-17.9,8.2-35.7,16.6-53.5,24.9c-0.3,1.4,0.7,2.3,1.3,3.3c0.3,0.4,0.5,0.7,0.8,1.1l0,0
			c3.7-0.1,6.9-2,10.1-3.5c14-6.9,27.6-14.8,42-21c4.5-2,8.5-5.2,13.9-5.5c-4.4,2.5-8.7,5-13.1,7.4c-15.1,8.3-30.3,16.6-45.5,24.9
			c-1.9,1-3.3,2.1-3.1,4.5c0,0.9,0.1,1.7,1.2,2c-0.1-3.1,2.7-3.8,4.5-4.9c15.7-8.9,31.4-17.7,47.2-26.4c0.8-0.5,1.7-1.4,4.1,0
			c-18.6,11-36.7,21.7-54.8,32.4c0.7,2.2,2.2,3.8,3.8,5.4c3.2,0.1,5.1-2.3,7.5-3.9c7.2-4.7,14.4-9.5,21.6-14.2
			c1.4-0.9,2.6-2.4,5.9-1.7c-11.2,8.1-21.7,15.6-32.2,23.1c1.8,4,5.2,6.8,8.2,9.8c11.4-9.3,22.8-18.5,34.1-27.8
			c3.3-2.7,6.5-5.4,10.6-8.8c-0.3,4.1-2.9,5.6-4.7,7.1c-11.4,9.5-22.7,19.3-33.6,29.4c-1.4,1.3-2.7,2.4-4.7,2
			c1.7,2.3,3.4,4.6,6.2,5.6c1.5-1.3,3.1-2.5,4.5-3.9c10.4-10,20.8-20,31.1-30c1-1,2-2.1,3.7-2c0.4-0.4,0.7-0.7,1.1-1.1
			c0.4-0.4,0.7-0.7,1.1-1.1c0.4-0.4,0.7-0.7,1.1-1.1c0.4-0.4,0.7-0.7,1.1-1.1c0.4-0.4,0.7-0.7,1.1-1.1l0.3-0.5l0.2,0.2l-0.5,0.2
			c-0.4,0.4-0.7,0.7-1.1,1.1c-0.4,0.4-0.7,0.7-1.1,1.1c-0.4,0.4-0.7,0.7-1.1,1.1c-0.4,0.4-0.7,0.7-1.1,1.1c-0.4,0.4-0.7,0.7-1.1,1.1
			c-0.3,0.8-0.4,1.9-1,2.4c-12,11.9-23.5,24.3-36,35.6c0.8,1,1.6,2.1,2.4,3.1l-0.1,0c0.4,0.4,0.8,0.7,1.3,1.1
			c0.9,0.4,1.8,0.9,2.7,1.3c2.3,0,4.6,0,6.9-0.1c10.3-12,20.6-24,30.9-36c0.5,0.4,1,0.8,1.5,1.2c-9.6,12.1-18.8,24.4-29.2,35.9
			c2.4,1.4,4.9,1.9,7.6,2.1c6.7-9.1,13.4-18.1,20.1-27.2c0.5,0.4,1,0.7,1.5,1.1c-6.1,9-12.3,18.1-18.4,27.1c4.3,0.4,8.7,0.8,13,1.2
			c6.3-7.3,9.5-16.4,14.9-24.2c3.4-4.9,4.9-11.1,10-14.9c0-1.2-0.2-2.5,1.1-3.2c0.4-2,0.7-4,3.3-4.3c0.1-1-0.4-2.2,0.9-2.8
			c0.1,0,0.4,0.1,0.4,0.2c0.1,1.2-0.4,2-1.3,2.6c-0.4,2-0.7,4-3.2,4.3c0,1.2,0.2,2.5-1.1,3.3c-4.4,11.7-11.8,21.7-17.3,32.8
			c-1.2,2.4-2.9,4.5-3.4,7.3c2.2,0.4,4.3,0.7,6.5,1.1c5.7-11.7,11.3-23.5,17-35.2c0.5,0.2,0.9,0.4,1.4,0.6
			c-5.1,11.5-10.1,23.1-15.2,34.6c4,0.1,7.9,1.7,11.9,1.1l0,0c5.3-14.6,10.7-29.2,16-43.8c0.5,0.2,1,0.3,1.4,0.5
			c-4.8,14.5-9.5,28.9-14.3,43.4c0,0,0,0,0,0c2.2-0.1,4.5-0.2,6.5,1c2.9-12.9,7.1-25.5,11.3-38c-0.1,6.8-2.8,13-4.2,19.5
			c-1.3,6.1-3.7,12-3.9,18.4c3.6,0,7.3,0.1,10.9,0.1c0,0,0,0,0,0c2.9-16.2,5.7-32.5,8.8-48.7c0.8-4,0.4-8.2,3.1-11.8
			c-2.9,20.2-5.7,40.4-8.6,60.6l0,0c2.2-0.3,4.3-0.7,6.5-1c0.7-15.5,3-30.9,4.9-46.4c1.2,7.8-0.7,15.6-0.8,23.4
			c-0.1,7.7-1.2,15.3-1.9,23c3.6,0,7.2,0,10.8,0c0-18.5,0-37.1,0-55.6c0.6,0,1.3,0,1.9,0c0.5,18.5,0.9,37.1,1.4,55.6
			c2.3,0.5,4.3-0.7,6.4-1c-1-12.1-2.1-24.2-3.1-36.4c-0.3-3.4,0-6.8,0.6-10.2c1.6,15.5,3.1,31,4.7,46.5c3.6,0,7.2-0.1,10.8-0.1
			c-0.9-14.3-4.6-28.2-7.1-42.3c-1.2-6.8-2.5-13.6-3.4-20.5c2.6,3.6,2.4,7.9,3.3,11.9c3.5,15.7,6.9,31.5,10.3,47.2
			c0.2,0.9,0.1,1.8,0.1,2.7c0.3,0,0.7,0.1,1,0.1c1.8-0.1,3.7-0.1,5.5-0.2c-2.2-9.4-4.4-18.9-6.8-28.3c-0.5-2.1-0.9-4.2-0.8-6.4
			c-1.3-0.8-1-2.1-1.1-3.3c-1.1-0.9-1.4-2-0.6-3.4c1.1,1,0.4,2.3,0.6,3.3c1.3,0.8,1,2.1,1.1,3.3c4.6,10,6.3,20.9,9.7,31.3
			c0.4,1.2,0.2,2.5-1,3.4c0.6,6.7,2.9,12.8,5.4,20.5c0.9-4.4,0.9-4.4-0.8-10.3c-3.2-11.2-3.2-11.2,8.4-11.4c0.2-2-0.4-3.9-1.1-5.8
			C278.1,298.5,274.2,288.9,270.9,279z M138.6,259.4c-0.2-0.3-0.3-0.7-0.5-1c0.3-0.1,0.6-0.3,0.8-0.2c0.2,0.1,0.3,0.5,0.4,0.8
			C139,259,138.8,259.2,138.6,259.4z M142.1,257.3c-0.3-0.1-0.6-0.3-0.9-0.4c0.1-0.3,0.2-0.8,0.4-0.9c0.2-0.1,0.6,0.2,0.9,0.3
			C142.4,256.6,142.2,256.9,142.1,257.3z M145.5,255c-0.3,0.1-0.7-0.4-1.1-0.6c0.3-0.3,0.6-0.8,1-0.9c0.3-0.1,0.8,0.3,1.4,0.5
			C146.2,254.5,145.9,255,145.5,255z M133,181.5c-17.7-2.8-35.4-5.6-53.1-8.4c-0.7-0.1-1.6,0.1-2.1-0.2c-1.4-0.9-4.4-0.2-3.9-2.7
			c0.5-2.4,2.9-1.3,4.6-1c22.7,4.2,45.5,8.5,68.2,12.7c1.7,0.3,3.3,0.9,4.9,1.4c0,0.3-0.1,0.5-0.1,0.8
			C145.3,183.2,139.1,182.4,133,181.5z M130.4,197.9c-17.3-0.6-34.6,1.4-51.9,1.1c-1.3,0-2.5,0-3.8,0c-0.9,0-1.9-0.3-1.9-1.4
			c-0.1-1.5,1.1-1.7,2.2-1.7c0.7,0,1.4,0,2.2,0c24,0,48,0,72.1,0.1c1.3,0,2.9-0.6,4.7,2.1C145.4,198,137.9,198.2,130.4,197.9z
			 M152.7,231.3c-0.1,0-0.3-0.2-0.4-0.3c0.3,0,0.5,0,0.8,0.1C152.9,231.2,152.8,231.3,152.7,231.3z M151.5,225.7
			c-1.4-1.2,0.1-1.5,1-1.6c0.5-0.1,0.9,0.2,1.5,0.3C153.4,225.4,152.2,226.3,151.5,225.7z M152,221.3c2.5-1.8,3.9-2.3,6.3-2
			C156.5,221,155,221.5,152,221.3z M156,246.8C155.9,246.8,155.9,246.8,156,246.8c-0.4,0.4-0.7,0.7-1.1,1.1c0,0,0,0,0,0
			c-0.5,0.9-1.3,1.1-2.2,1.1c-0.1,0.2-0.2,0.3-0.3,0.5c0.1-0.2,0.2-0.3,0.2-0.5c0.5-0.9,1.3-1.1,2.2-1.1c0,0,0,0,0,0
			C155.2,247.5,155.6,247.2,156,246.8C155.9,246.8,155.9,246.8,156,246.8c0.4-0.3,0.8-0.5,1.1-0.8
			C157.4,247.3,156.3,246.5,156,246.8z M154.1,240.8c0.7-2,2.2-2.4,4-2.7c0.1-0.2,0.1-0.3,0.2-0.5c0.1,0,0.3,0.1,0.4,0.1
			c0.9-0.7,1.8-1.2,2.9-1.7c-0.4,2.3-1.8,2-2.9,1.7c-0.1,0.1-0.3,0.2-0.4,0.4c-0.1,0-0.1,0-0.2,0
			C157.2,240.4,156.1,241.1,154.1,240.8z M159.4,257.4c0.6-2.9,2.1-4.2,5.6-5.4C163.4,255.2,162.3,256.8,159.4,257.4z M167.9,250.1
			c-0.2,0.1-0.3,0.3-0.5,0.4c0-0.1,0-0.2,0.1-0.3C167.6,250.1,167.7,250.1,167.9,250.1c0.1-0.8,0.1-1.7,1.3-1.6
			c0.1,0,0.3,0.2,0.3,0.3C169.6,249.9,168.7,249.9,167.9,250.1z M170,283.2c-0.2-0.3-0.3-0.7-0.5-1c0.3-0.1,0.6-0.3,0.8-0.3
			c0.2,0.1,0.3,0.5,0.4,0.8C170.5,282.9,170.3,283.1,170,283.2z M169.2,271.7c0.4-2.7,1.4-3.8,3.7-3.9
			C172.8,270.1,171.6,271,169.2,271.7z M173.6,279c-0.3-0.1-0.8-0.2-0.9-0.4c-0.1-0.2,0.2-0.6,0.3-0.9c0.3,0.1,0.8,0.2,0.9,0.4
			C174,278.3,173.7,278.6,173.6,279z M175.2,275.7c-0.1-0.3-0.4-0.7-0.3-0.9c0.1-0.2,0.6-0.3,0.9-0.4c0.1,0.3,0.2,0.6,0.4,0.9
			C175.8,275.4,175.5,275.5,175.2,275.7z M175.7,264.8c-0.6,0.1-1-0.3-0.9-0.9c0.3-1.5,1.5-1.8,2.8-1.9c0.2-0.1,0.3-0.3,0.5-0.4
			c-0.1,0.2-0.3,0.3-0.4,0.5C177.5,263.3,177.2,264.5,175.7,264.8z M178.4,272c-0.1,0-0.3,0.1-0.3,0.1c-0.1-0.1-0.1-0.2-0.2-0.4
			c0.2,0,0.4-0.1,0.6-0.1C178.4,271.7,178.4,271.9,178.4,272z M180,258.9c0-0.1,0-0.3,0.1-0.4c0.1-0.1,0.2-0.1,0.3-0.1
			c0,0.1,0.1,0.2,0.1,0.4C180.4,258.8,180.2,258.9,180,258.9z M195.7,262.3c-0.1-0.1-0.3-0.3-0.4-0.4c0.1-0.1,0.2-0.2,0.3-0.3
			c0.1,0.1,0.2,0.2,0.2,0.3C195.8,262,195.7,262.2,195.7,262.3z M210.2,263.1C210.2,263.1,210.2,263.1,210.2,263.1
			C210.2,263.1,210.2,263.1,210.2,263.1c0,1.2,0.2,2.5-1.1,3.3c0,1.7,0,3.4-1.8,4.6c-0.6-2.1,0.5-3.4,1.8-4.6
			C209.1,265.1,208.9,263.9,210.2,263.1C210.2,263.1,210.2,263.1,210.2,263.1C210.2,263.1,210.2,263.1,210.2,263.1
			c0.1-0.8,0.3-1.6,0.4-2.4c0.1,0.1,0.4,0.2,0.4,0.3C211.3,261.9,211,262.6,210.2,263.1z M211.8,277.7c-0.9-2.3-0.2-3.7,0.9-5
			C214.2,274.5,212.9,275.8,211.8,277.7z M214,269.9c-0.2-0.3-0.4-0.5-0.4-0.8c0-0.3,0.3-0.5,0.4-0.8c0.2,0.3,0.3,0.5,0.5,0.8
			C214.3,269.3,214.1,269.6,214,269.9z M215,265.7c-0.1-0.3-0.1-0.5-0.2-0.6c0.1,0,0.3-0.1,0.4-0.1
			C215.1,265.1,215.1,265.3,215,265.7z"/>
		<polygon display="inline" fill="#C6823C" points="210.2,263.1 210.2,263.1 210.2,263.1 210.2,263.1 		"/>
		<path display="inline" fill="#C6823C" d="M158.8,237.7c-0.2,0-0.3-0.1-0.4-0.1c-0.1,0.2-0.1,0.4-0.2,0.5c0.1,0,0.1,0,0.2,0
			C158.5,237.9,158.6,237.8,158.8,237.7z"/>
		<path display="inline" fill="#C6823C" d="M154.8,247.9C154.8,247.9,154.8,247.9,154.8,247.9C154.8,247.9,154.8,247.9,154.8,247.9
			c0.4-0.4,0.7-0.7,1.1-1.1c0,0,0,0,0,0c0,0,0,0,0,0C155.6,247.2,155.2,247.5,154.8,247.9z"/>
		<path display="inline" fill="#C6823C" d="M89.5,131.7c-1.9-0.9-3.7-2.2-6-2c-2.4,3.9-3.7,8.3-4.8,12.7c0.1,0.1,0.3,0.3,0.4,0.4
			c9,1.2,17,5.5,25.5,8.4c10,3.6,19.8,7.6,29.7,11.5c1.3,0.5,2.4,0.6,3.7,0c-2.6-4.2-6.1-7.8-8-12.4
			C116.1,144.6,102.8,138.2,89.5,131.7z"/>
		<path display="inline" fill="#C6823C" d="M116.5,119.2c-6.7-4.6-12.8-10.3-20.4-13.5c-2.8,3.2-4.8,6.9-6.5,10.9
			c10.3,6.1,20.5,12.1,30.8,18.3c2.3,1.4,4.5,2.9,7.2,3.5c0.5-3.1,1-6.3,1.5-9.4C125.8,124.6,120.9,122.1,116.5,119.2z"/>
		<path display="inline" fill="#C6823C" d="M118.2,88.2c-1.6-1.4-3.2-2.8-4.9-4.2c-3.5,2.7-6.4,6-8.6,9.8c8.8,7.5,17.6,15,26.3,22.5
			c1.1,0.9,2.1,2,2,3.6c0.2,0.1,0.3,0.3,0.5,0.4c2.8-2.6,5.5-5.3,8.3-7.9C133,105.2,126.8,95.5,118.2,88.2z"/>
		<path display="inline" fill="#C6823C" d="M111.8,132.8c-7.9-4.3-16.5-7.7-23.2-14.2c-1.8,2.2-3,4.7-3.6,7.5
			c14.7,7.3,29.3,14.6,44,21.8c-0.5-2.5-1-5.1-1.4-7.6C121.4,139.9,116.9,135.6,111.8,132.8z"/>
		<path display="inline" fill="#C6823C" d="M119.6,110.3c-5.7-4.6-12-8.6-16.8-14.2c-1.7,2-3.8,3.7-4.3,6.4c9.3,7,18.7,13.9,27.9,21
			c1.3,1,2.6,1.9,4.3,1.8c0.9-1.7,1.9-3.4,2.8-5.1c-0.2-0.1-0.3-0.3-0.5-0.4C127.3,118.5,123.9,113.8,119.6,110.3z"/>
		<path display="inline" fill="#C68542" d="M102,261.7c-3.2,1.6-6.4,3.4-10.1,3.5c1,2.5,2.3,4.9,4.2,6.8c-0.2-2.4,1.2-3.5,3.1-4.5
			c15.2-8.2,30.3-16.6,45.5-24.9c4.4-2.4,8.8-5,13.1-7.4c-5.4,0.4-9.4,3.6-13.9,5.5C129.6,247,116.1,254.8,102,261.7z"/>
		<path display="inline" fill="#C68542" d="M80.7,241.5c0.4,1.1,0.1,2.4,1.4,3.1c1.6-0.2,3.2-0.3,4.7-0.7C104.9,238,123,232,141,226
			c2.4-0.8,4.6-1.9,6.9-2.9c-0.1-0.4-0.3-0.8-0.4-1.2C125.2,228.4,103,235,80.7,241.5z"/>
		<path display="inline" fill="#AD7236" d="M149.1,210c-22.3,3.6-44.5,7.2-66.8,11.1c-2.2,0.4-5.8-0.8-6.7,3c-0.1,0.3,0,0.7,0.2,1
			c10.8-0.4,21.2-3.5,31.7-5.4c15.1-2.8,30.2-5.9,45.2-8.8C151.5,210,150.3,209.8,149.1,210z"/>
		<path display="inline" fill="#AD7236" d="M123.6,234.2c-13.4,4.6-26.9,9.1-40.3,13.7c-0.5,1.4,0.6,2.2,1.2,3.2
			c0.9-0.1,1.8-0.1,2.7-0.4c15.1-5.7,30.3-11.5,45.4-17.3c4.8-1.9,9.5-3.9,14.3-5.9c-0.2-0.4-0.3-0.9-0.5-1.3
			C138.8,228.9,131.2,231.6,123.6,234.2z"/>
		<path display="inline" fill="#AD7236" d="M149,242.7c-15.8,8.8-31.5,17.5-47.2,26.4c-1.9,1.1-4.6,1.8-4.5,4.9
			c0.3,0.3,0.6,0.7,0.9,1c18.1-10.7,36.2-21.4,54.8-32.4C150.7,241.3,149.8,242.2,149,242.7z"/>
		<path display="inline" fill="#DD8C3C" d="M71.5,182.8c24.2,0.3,48.2,4.3,72.4,4.8c-24.1-3-48.2-6.1-72.3-9.1
			C71.6,179.9,71.6,181.3,71.5,182.8z"/>
		<path display="inline" fill="#AD7236" d="M113.1,293.7c0.3,0.3,0.5,0.6,0.8,0.8c0.3,0.3,0.6,0.7,0.9,1c0,0,0.1,0.1,0.1,0.1
			c2,0.3,3.3-0.8,4.7-2c10.9-10.1,22.1-19.9,33.6-29.4c1.8-1.5,4.3-2.9,4.7-7.1c-4.1,3.4-7.3,6.2-10.6,8.8
			C135.8,275.1,124.4,284.4,113.1,293.7z"/>
		<path display="inline" fill="#DD8C3C" d="M131.1,202.4c-19.5,1.6-39.1,2.8-58.7,3.2c0.1,1.1,0.2,2.2,0.3,3.3
			c24.2-0.9,48.2-4.4,72.4-6.1C140.4,202.4,135.8,202,131.1,202.4z"/>
		<path display="inline" fill="#DD8C3C" d="M138,218.6c-20,4.7-40,9.3-60.1,14c0.4,1.1,0.7,2.2,1.1,3.3c20.2-5.5,40.4-11,62.2-16.9
			C139.1,218.7,138.5,218.5,138,218.6z"/>
		<path display="inline" fill="#DD8C3C" d="M112.4,247.3c-8.1,3.2-15.5,8.3-24.5,9.2c0,1.7,0.8,3.1,2,4.3
			c17.8-8.3,35.7-16.6,53.5-24.9c1.2-0.5,2.3-1,2.8-2.2c-0.9,0.1-1.9,0-2.6,0.3C133.1,238.5,122.9,243.2,112.4,247.3z"/>
		<polygon display="inline" fill="#DD8C3C" points="146.2,233.8 146.2,233.8 146.2,233.8 		"/>
		<path display="inline" fill="#DD8C3C" d="M75.9,152.4c-0.3,1.1-0.7,2.2-1,3.3c11.9,1.8,23.3,5.8,35,8.7c8.5,2.1,16.9,4.5,25.3,6.8
			c-10.4-4.5-21-8-31.8-11C94.2,157.6,85.4,153.8,75.9,152.4z"/>
		<path display="inline" fill="#DD8C3C" d="M156.6,267.3c-10.4,10-20.7,20-31.1,30c-1.4,1.4-3,2.6-4.5,3.9c0.8,0.7,1.5,1.4,2.3,2.1
			c12.6-11.3,24-23.7,36-35.6c0.6-0.6,0.7-1.6,1-2.4c0,0,0,0,0,0C158.6,265.2,157.7,266.3,156.6,267.3z"/>
		<path display="inline" fill="#AD7236" d="M120.4,134.9c-10.2-6.1-20.5-12.2-30.8-18.3c-1.1,0.4-0.9,1.3-1,2.1
			c6.7,6.4,15.2,9.8,23.2,14.2c5.1,2.8,9.6,7.1,15.8,7.6c0-0.7,0-1.4,0-2.1C124.9,137.8,122.7,136.3,120.4,134.9z"/>
		<path display="inline" fill="#DD8C3C" d="M129,148.1c-14.7-7.3-29.3-14.6-44-21.8c-0.5,1.1-1,2.3-1.5,3.4c2.3-0.2,4.1,1.1,6,2
			c13.3,6.5,26.7,12.9,40.4,18.6C129.9,149.4,129.8,148.6,129,148.1z"/>
		<path display="inline" fill="#AD7236" d="M131.1,116.2c-8.8-7.5-17.5-15-26.3-22.5c-0.6,0.8-1.3,1.6-1.9,2.3
			c4.8,5.7,11.1,9.6,16.8,14.2c4.3,3.4,7.7,8.1,13.5,9.5C133.2,118.2,132.1,117.1,131.1,116.2z"/>
		<path display="inline" fill="#DD8C3C" d="M139.5,106.8c-8-8.3-15.2-17.4-24-25c-0.7,0.7-1.5,1.4-2.2,2.2c1.6,1.4,3.2,2.8,4.9,4.2
			c8.6,7.3,14.8,17.1,23.6,24.2c0.9-0.6,1.8-1.3,2.7-1.9C142.2,110.1,141.1,108.4,139.5,106.8z"/>
		<path display="inline" fill="#DD8C3C" d="M131.1,262.3c-7.2,4.7-14.4,9.5-21.6,14.2c-2.4,1.5-4.3,3.9-7.5,3.9
			c0.9,1.1,1.9,2.3,2.8,3.4c10.5-7.5,20.9-15.1,32.2-23.1C133.7,259.9,132.5,261.4,131.1,262.3z"/>
		<path display="inline" fill="#DD8C3C" d="M126.4,123.5c-9.3-7.1-18.6-14-27.9-21c-0.8,1.1-1.6,2.1-2.4,3.2
			c7.6,3.2,13.6,8.9,20.4,13.5c4.4,2.9,9.2,5.4,12.5,9.8c0.6-1.2,1.1-2.4,1.7-3.6C129,125.5,127.8,124.6,126.4,123.5z"/>
		<path display="inline" fill="#C6823C" d="M113.8,294.5c0.3,0.3,0.6,0.7,0.9,1C114.5,295.2,114.1,294.8,113.8,294.5z"/>
		<path display="inline" fill="#926D49" d="M189.6,317.3L189.6,317.3c-2.1,6.5-5.6,12.6-6.5,19.4c0.2,0.2,0.5,0.3,0.8,0.3
			c1.7-0.2,2.9-0.9,3.5-2.8c1.7-5.6,3.6-11.2,5.5-16.8c0,0,0,0,0,0C191.7,317.3,190.6,317.3,189.6,317.3z"/>
		<path display="inline" fill="#FEF8F6" d="M125.6,306.4c0.4,0.4,0.8,0.7,1.3,1.1C126.4,307.1,126,306.7,125.6,306.4z"/>
		<path display="inline" fill="#AD7236" d="M236.2,261.7c0,18.5,0,37.1,0,55.6c0.4,0,0.7,0,1.1,0c0.7,0,1.5,0,2.2,0
			c0,0,0.1-0.1,0.1-0.1c-0.5-18.5-0.9-37.1-1.4-55.6C237.5,261.7,236.8,261.7,236.2,261.7z"/>
		<path display="inline" fill="#AD7236" d="M251.9,265.2c-0.9-4-0.8-8.3-3.3-11.9c0.9,6.9,2.2,13.7,3.4,20.5
			c2.4,14.1,6.1,28,7.1,42.3c0.4,0,0.7,0,1.1,0c0.5-0.9,1.3-1,2.2-1.1c0-0.9,0.1-1.8-0.1-2.7C258.8,296.7,255.4,280.9,251.9,265.2z"
			/>
		<path display="inline" fill="#DD8C3C" d="M223.2,317.3c0.7,1.1,1.5,1.1,2.2,0c0.7-7.7,1.8-15.3,1.9-23c0.1-7.8,2-15.5,0.8-23.4
			C226.1,286.4,223.8,301.8,223.2,317.3z"/>
		<path display="inline" fill="#DD8C3C" d="M242.9,279.9c0.9,12.1,2,24.2,3.1,36.4c0.7,0,1.5,0,2.2,0c-1.6-15.5-3.1-31-4.7-46.5
			C242.8,273.1,242.6,276.5,242.9,279.9z"/>
		<path display="inline" fill="#926D49" d="M240.5,338.2c0.4-7-1.7-13.9-1.1-20.9c-0.7,0-1.5,0-2.2,0c0,7,0,14,0,21
			c0,1.3-0.6,3.4,1.4,3.5C241.3,342,240.4,339.6,240.5,338.2z"/>
		<path display="inline" fill="#DD8C3C" d="M202.5,318.2c0.2-6.4,2.6-12.3,3.9-18.4c1.4-6.5,4.1-12.7,4.2-19.5
			c-4.2,12.6-8.4,25.1-11.3,38C200.4,318.3,201.4,318.3,202.5,318.2z"/>
		<path display="inline" fill="#AD7236" d="M132.3,84.8c-2.9-3.5-5-7.9-9.9-9.3c0.3,5,4.4,7.5,7.2,10.8c6.2,7.6,12.7,14.9,19,22.3
			c0.4,0,0.7,0,1-0.3c-0.2-2.2-1.3-4-2.7-5.8C141.9,96.7,137.1,90.7,132.3,84.8z"/>
		<path display="inline" fill="#DD8C3C" d="M261.2,280.4L261.2,280.4c0,2.2,0.3,4.3,0.8,6.4c2.4,9.4,4.6,18.8,6.8,28.3
			c0.3,0,0.7,0.1,1.1,0.1c1.2-0.9,1.4-2.3,1-3.4C267.4,301.3,265.8,290.4,261.2,280.4z"/>
		<path display="inline" fill="#AD7236" d="M213.4,318.3c1.1,0,2.2,0,3.3,0c2.9-20.2,5.7-40.4,8.6-60.6c-2.7,3.6-2.3,7.9-3.1,11.8
			C219.1,285.8,216.3,302.1,213.4,318.3z"/>
		<path display="inline" fill="#AD7236" d="M236.3,250.8c0,2.2,0,4.4,0,6.6c0.3,0,0.7,0,1-0.1c-0.1-2.3-0.2-4.5-0.4-6.8
			C236.7,250.5,236.5,250.6,236.3,250.8z"/>
		<path display="inline" fill="#FAFAFA" d="M156.5,111.3c-11.4,1.4-19.5,7.9-23,18.6c-3.5,10.6-1.4,20.7,7.4,28.5
			c7.9,7,17.2,8.5,27.3,6.1c5-9.2,11.1-17.5,19.4-24.1c-1.5-5.8-1.1-12.2-5.3-17.3C175.5,114.9,167.3,110,156.5,111.3z"/>
		<path display="inline" fill="#AD7236" d="M142,165.4C142,165.4,142,165.3,142,165.4C142,165.3,142,165.3,142,165.4
			C141.9,165.4,142,165.4,142,165.4z"/>
		<path display="inline" fill="#AD7236" d="M138.6,162.9c-0.2,0.3-0.4,0.5-0.5,0.8c0-0.3-0.1-0.6-0.1-0.9c0,0,0-0.1,0-0.1
			c-1.2,0.5-2.4,0.5-3.7,0c-9.9-3.9-19.7-7.9-29.7-11.5c-8.4-3-16.4-7.3-25.5-8.4c-0.7,3.3,2.1,3.3,4,4
			c16.1,5.7,32.2,11.3,48.4,16.7c3.3,1.1,6.6,3.6,10.5,1.9c-0.4-0.3-0.8-0.6-1.2-1C140,163.9,139.3,163.4,138.6,162.9z"/>
		<path display="inline" fill="#C6823C" d="M137.9,162.8c0,0.3,0.1,0.6,0.1,0.9c0.2-0.3,0.4-0.5,0.5-0.8
			C138.4,162.7,138.2,162.7,137.9,162.8z"/>
		<path display="inline" fill="#C6823C" d="M142,165.4c-0.4-0.3-0.8-0.7-1.2-1C141.1,164.7,141.5,165,142,165.4z"/>
		<path display="inline" fill="#AD7236" d="M149.2,195.9c-24-0.1-48-0.1-72.1-0.1c-0.7,0-1.4,0-2.2,0c-1.1,0.1-2.3,0.3-2.2,1.7
			c0.1,1.1,1,1.4,1.9,1.4c1.3,0.1,2.5,0,3.8,0c17.3,0.3,34.6-1.7,51.9-1.1c7.5,0.3,15.1,0,23.5,0C152,195.2,150.5,195.9,149.2,195.9
			z"/>
		<path display="inline" fill="#AD7236" d="M78.5,169.1c-1.7-0.3-4.1-1.4-4.6,1c-0.6,2.5,2.5,1.9,3.9,2.7c0.5,0.3,1.4,0.1,2.1,0.2
			c17.7,2.8,35.4,5.7,53.1,8.4c6.2,1,12.3,1.7,18.5,2.5c0-0.3,0.1-0.5,0.1-0.8c-1.6-0.5-3.3-1.1-4.9-1.4
			C124,177.6,101.3,173.3,78.5,169.1z"/>
		<path display="inline" fill="#AD7236" d="M136.4,308.7c0.8,1.2,2.1,1,3.3,1.1c10.3-11.5,19.6-23.8,29.2-35.9
			c-0.5-0.4-1-0.8-1.5-1.2C157,284.7,146.7,296.7,136.4,308.7z"/>
		<path display="inline" fill="#AD7236" d="M178.4,289.9c-5.4,7.8-8.7,16.9-14.9,24.2c0,0.4,0,0.7,0,1.1c1.1,0,2.2,0,3.2,0
			c0.4,0,0.7,0,1.1,0c0.5-2.7,2.2-4.9,3.4-7.3c5.5-11.1,12.9-21.2,17.3-32.8c0,0,0,0,0,0C183.3,278.7,181.8,284.9,178.4,289.9z"/>
		<path display="inline" fill="#AD7236" d="M189.6,317.3c1.1,0,2.2,0,3.2,0c4.8-14.5,9.5-28.9,14.3-43.4c-0.5-0.2-1-0.3-1.4-0.5
			C200.3,288.1,194.9,302.7,189.6,317.3z"/>
		<path display="inline" fill="#DD8C3C" d="M147.2,311.9c1.1,0.3,2.2,0.7,3.2,1c6.1-9,12.3-18.1,18.4-27.1c-0.5-0.4-1-0.7-1.5-1.1
			C160.7,293.8,154,302.8,147.2,311.9z"/>
		<path display="inline" fill="#DD8C3C" d="M174.4,316.2c1.1,0,2.2,0,3.2,0c5.1-11.5,10.1-23.1,15.2-34.6c-0.5-0.2-0.9-0.4-1.4-0.6
			C185.7,292.7,180,304.5,174.4,316.2z"/>
		<path display="inline" fill="#AD7236" d="M159.4,257.4c2.8-0.6,4-2.2,5.6-5.4C161.5,253.2,160,254.5,159.4,257.4z"/>
		<path display="inline" fill="#AD7236" d="M169.2,271.7c2.4-0.7,3.6-1.6,3.7-3.9C170.6,268,169.6,269.1,169.2,271.7z"/>
		<path display="inline" fill="#C68542" d="M152,221.3c3,0.2,4.4-0.3,6.3-2C155.9,219,154.5,219.5,152,221.3z"/>
		<path display="inline" fill="#AD7236" d="M154.1,240.8c2.2,0.3,3.3-0.5,4.3-2.7C156.4,238.3,154.8,238.7,154.1,240.8z"/>
		<path display="inline" fill="#DD8C3C" d="M211.8,277.7c1.1-1.9,2.4-3.2,0.9-5C211.6,274.1,210.9,275.4,211.8,277.7z"/>
		<path display="inline" fill="#AD7236" d="M189.6,271.7L189.6,271.7c2.6-0.3,2.9-2.4,3.3-4.3l0,0
			C190.2,267.7,190,269.8,189.6,271.7z"/>
		<path display="inline" fill="#AD7236" d="M174.8,263.9c-0.1,0.6,0.3,1.1,0.9,0.9c1.5-0.3,1.8-1.5,1.9-2.8l0,0
			C176.3,262.1,175.1,262.4,174.8,263.9z"/>
		<path display="inline" fill="#AD7236" d="M151.5,225.7c0.7,0.6,1.9-0.3,2.5-1.3c-0.5-0.1-1-0.3-1.5-0.3
			C151.6,224.2,150.2,224.4,151.5,225.7z"/>
		<path display="inline" fill="#AD7236" d="M207.3,270.9c1.8-1.2,1.8-2.9,1.8-4.6l0,0C207.8,267.5,206.7,268.8,207.3,270.9z"/>
		<path display="inline" fill="#DD8C3C" d="M144.4,254.4c0.4,0.2,0.8,0.7,1.1,0.6c0.4-0.1,0.7-0.6,1.3-1c-0.6-0.2-1.1-0.6-1.4-0.5
			C145,253.6,144.8,254.1,144.4,254.4z"/>
		<path display="inline" fill="#AD7236" d="M161.6,236c-1.3,0.6-2.3,1.1-3.3,1.6C159.4,237.9,161.2,238.6,161.6,236z"/>
		<path display="inline" fill="#AD7236" d="M169.2,248.4c-1.2-0.1-1.2,0.8-1.3,1.6l0,0c0.8-0.1,1.7-0.1,1.6-1.3
			C169.5,248.6,169.3,248.4,169.2,248.4z"/>
		<path display="inline" fill="#DD8C3C" d="M170.3,282c-0.2-0.1-0.5,0.2-0.8,0.3c0.2,0.3,0.3,0.7,0.5,1c0.2-0.2,0.5-0.3,0.7-0.5
			C170.6,282.5,170.5,282,170.3,282z"/>
		<path display="inline" fill="#DD8C3C" d="M173,277.6c-0.1,0.3-0.4,0.7-0.3,0.9c0.1,0.2,0.6,0.3,0.9,0.4c0.1-0.3,0.4-0.7,0.3-0.9
			C173.8,277.8,173.3,277.8,173,277.6z"/>
		<path display="inline" fill="#AD7236" d="M193.7,264.6c-1.3,0.6-0.8,1.8-0.9,2.8l0,0c1-0.6,1.5-1.5,1.3-2.6
			C194.1,264.7,193.8,264.5,193.7,264.6z"/>
		<path display="inline" fill="#DD8C3C" d="M138.9,258.1c-0.2-0.1-0.6,0.2-0.8,0.2c0.2,0.3,0.3,0.7,0.5,1c0.2-0.2,0.5-0.3,0.7-0.5
			C139.2,258.6,139.1,258.2,138.9,258.1z"/>
		<path display="inline" fill="#DD8C3C" d="M259.4,273.8c-0.8,1.4-0.5,2.5,0.6,3.4l0,0C259.8,276.1,260.6,274.8,259.4,273.8z"/>
		<path display="inline" fill="#DD8C3C" d="M141.6,256c-0.2,0.1-0.3,0.6-0.4,0.9c0.3,0.1,0.6,0.3,0.9,0.4c0.1-0.3,0.3-0.6,0.4-0.9
			C142.2,256.2,141.8,255.9,141.6,256z"/>
		<path display="inline" fill="#DD8C3C" d="M174.9,274.8c-0.1,0.2,0.2,0.6,0.3,0.9c0.3-0.1,0.6-0.2,0.9-0.4
			c-0.1-0.3-0.2-0.6-0.4-0.9C175.5,274.5,175,274.5,174.9,274.8z"/>
		<path display="inline" fill="#DD8C3C" d="M260.1,277.2L260.1,277.2c0,1.2-0.2,2.5,1.1,3.3l0,0
			C261.1,279.2,261.4,277.9,260.1,277.2z"/>
		<path display="inline" fill="#DD8C3C" d="M213.5,269c0,0.3,0.3,0.5,0.4,0.8c0.2-0.3,0.3-0.5,0.5-0.8c-0.2-0.3-0.3-0.5-0.5-0.8
			C213.8,268.5,213.5,268.8,213.5,269z"/>
		<polygon display="inline" fill="#AD7236" points="210.2,263.1 210.2,263.1 210.2,263.1 		"/>
		<path display="inline" fill="#AD7236" d="M209.1,266.3L209.1,266.3c1.3-0.8,1-2.1,1.1-3.2C208.9,263.9,209.1,265.1,209.1,266.3z"
			/>
		<path display="inline" fill="#AD7236" d="M189.6,271.7c-1.3,0.8-1.1,2-1.1,3.2c0,0,0,0,0,0C189.8,274.2,189.6,273,189.6,271.7
			L189.6,271.7z"/>
		<polygon display="inline" fill="#AD7236" points="210.2,263.1 210.2,263.1 210.2,263.1 		"/>
		<path display="inline" fill="#AD7236" d="M210.6,260.7c-0.1,0.8-0.3,1.6-0.4,2.4c0.8-0.5,1.1-1.2,0.8-2.1
			C211,260.9,210.7,260.8,210.6,260.7z"/>
		<path display="inline" fill="#AD7236" d="M180.1,258.5c-0.1,0.1-0.1,0.3-0.1,0.4c0.2,0,0.4-0.1,0.6-0.1c0-0.1-0.1-0.2-0.1-0.4
			C180.3,258.4,180.2,258.4,180.1,258.5z"/>
		<path display="inline" fill="#DD8C3C" d="M148.3,232.7C148.4,232.7,148.4,232.7,148.3,232.7C148.4,232.7,148.3,232.7,148.3,232.7
			L148.3,232.7z"/>
		<path display="inline" fill="#DD8C3C" d="M148.4,232.7c0.4-0.2,1.5,0.5,1.1-0.8C149.1,232.2,148.7,232.4,148.4,232.7z"/>
		<path display="inline" fill="#DD8C3C" d="M215,265.7c0.1-0.3,0.2-0.5,0.2-0.7c-0.1,0-0.3,0.1-0.4,0.1
			C214.8,265.2,214.9,265.4,215,265.7z"/>
		<path display="inline" fill="#DD8C3C" d="M178,272.1c0.1,0,0.2,0,0.3-0.1c0-0.1,0.1-0.3,0.1-0.4c-0.2,0-0.4,0.1-0.6,0.1
			C177.9,271.8,178,272,178,272.1z"/>
		<path display="inline" fill="#DD8C3C" d="M152.7,231.3c0.1,0,0.3-0.1,0.4-0.2c-0.3,0-0.5,0-0.8-0.1
			C152.4,231.1,152.5,231.3,152.7,231.3z"/>
		<polygon display="inline" fill="#DD8C3C" points="146.2,233.8 146.2,233.8 146.2,233.8 		"/>
		<polygon display="inline" fill="#DD8C3C" points="148.3,232.7 148.3,232.7 148.3,232.7 		"/>
		<path display="inline" fill="#DD8C3C" d="M146.2,233.8c0.9,0,1.7-0.2,2.2-1.1C147.4,232.7,146.6,232.9,146.2,233.8z"/>
		<path display="inline" fill="#DD8C3C" d="M155.9,246.8C155.9,246.8,155.9,246.8,155.9,246.8C155.9,246.8,155.9,246.8,155.9,246.8
			L155.9,246.8z"/>
		<path display="inline" fill="#DD8C3C" d="M156,246.8c0.4-0.2,1.5,0.5,1.1-0.8C156.7,246.2,156.3,246.5,156,246.8z"/>
		<path display="inline" fill="#DD8C3C" d="M152.7,249L152.7,249c0.9,0,1.7-0.2,2.2-1.1C153.9,247.9,153.1,248.1,152.7,249z"/>
		<polygon display="inline" fill="#DD8C3C" points="154.8,247.9 154.8,247.9 154.8,247.9 		"/>
		<path display="inline" fill="#AD7236" d="M195.3,261.9c0.1,0.1,0.3,0.3,0.4,0.4c0-0.1,0.1-0.3,0.1-0.4c-0.1-0.1-0.2-0.2-0.2-0.3
			C195.5,261.7,195.4,261.8,195.3,261.9z"/>
		<path display="inline" fill="#DD8C3C" d="M152.4,249.4c0.1-0.2,0.2-0.3,0.3-0.5l0,0C152.6,249.1,152.5,249.3,152.4,249.4z"/>
		<path display="inline" fill="#DD8C3C" d="M154.8,247.9L154.8,247.9c0.4-0.4,0.7-0.7,1.1-1.1l0,0
			C155.6,247.2,155.2,247.5,154.8,247.9z"/>
		<path display="inline" fill="#AD7236" d="M177.6,262c0.1-0.2,0.3-0.3,0.4-0.5C177.9,261.7,177.8,261.8,177.6,262L177.6,262z"/>
		<path display="inline" fill="#DD8C3C" d="M164.6,260.9c0.4-0.4,0.7-0.7,1.1-1.1C165.3,260.2,165,260.5,164.6,260.9L164.6,260.9z"
			/>
		<path display="inline" fill="#DD8C3C" d="M162.4,263.1L162.4,263.1c0.4-0.4,0.7-0.7,1.1-1.1l0,0
			C163.2,262.3,162.8,262.7,162.4,263.1z"/>
		<path display="inline" fill="#DD8C3C" d="M161.3,264.1L161.3,264.1c0.4-0.3,0.7-0.7,1.1-1.1l0,0
			C162.1,263.4,161.7,263.8,161.3,264.1z"/>
		<polygon display="inline" fill="#DD8C3C" points="165.7,259.8 166.2,259.6 166,259.4 		"/>
		<path display="inline" fill="#DD8C3C" d="M160.3,265.2C160.3,265.2,160.3,265.2,160.3,265.2c0.4-0.3,0.7-0.7,1.1-1.1l0,0
			C161,264.5,160.6,264.9,160.3,265.2z"/>
		<path display="inline" fill="#DD8C3C" d="M163.5,262L163.5,262c0.4-0.4,0.7-0.7,1.1-1.1l0,0C164.2,261.3,163.9,261.6,163.5,262z"
			/>
		<path display="inline" fill="#AD7236" d="M167.5,250.2c-0.1,0.1-0.1,0.2-0.1,0.3c0.2-0.1,0.3-0.3,0.5-0.4l0,0
			C167.7,250.1,167.6,250.1,167.5,250.2z"/>
		<path display="inline" fill="#926D49" d="M158.3,326.9c5.9-1.7,6.1-7.5,8.5-11.7c-1.1,0-2.2,0-3.2,0
			C162.3,319.3,158,322,158.3,326.9z"/>
		<path display="inline" fill="#AD7236" d="M244.3,109c1.3-1.8,2-3.8,2.7-5.8c5.3-14.9,8.9-30.4,15.1-45.1c-1.4,0-2.9,0-4.3,0
			C254.2,75.3,247.8,91.8,244.3,109z"/>
	</g>
	<path fill="#D9E0EB" d="M203,336.3c-6.1-2.8-13.1-2.3-19.1-5.4c-0.3,0-0.6,0-0.8-0.3c-8.8-2.1-17.2-4.9-25-9.6
		c-10.4-4.8-20.1-10.7-28.6-18.3c-0.9-0.4-1.8-0.9-2.7-1.3c-0.4-0.4-0.8-0.7-1.2-1.1c-13.8-1.8-26.7-7-39.7-11.7
		c-5.8-2.1-11.6-4.4-17.3-6.7c7.5,11.8,17.3,22.4,30.2,31.5c10.8,3.8,21.8,7.3,33,10.3C155.2,330.1,178.8,335,203,336.3z"/>
	<path fill="#D9E0EB" d="M361.9,287.7c-2.5,1-4.9,2.1-7.2,3.5c-6.1,3.5-13.4,6.2-21.1,5.7l0,0.1c0,0.7-0.1,1.2-0.9,0.5
		c-2.5,1.4-4.9,2.8-7.4,4.2c-5,7.7-13.3,11.3-20.8,15.7c-3.8,2.2-7.5,5-12,5.9c-4.2,2.3-8.4,4.4-13.1,5.7c-1.4,0.4-4.4-0.3-4.3,2.8
		c20.6-4.1,40.8-9.5,60.8-15.7c-0.3-0.3-0.7-0.7-1-1c0.3,0.4,0.6,0.7,1,1c1.8-0.6,3.7-1.1,5.5-1.7
		C348.6,305.7,355.5,296.8,361.9,287.7z"/>
	<path fill="#C6823C" d="M393.1,183.5c14.2,77-82.2,155.8-167.8,155.8s-145.9-66.6-153.2-148c-4.3-48.1,12.1-95,49.1-120.5
		c22.9-15.8,58.9-17.6,91.7-17.6C298.5,53.2,368.1,47.9,393.1,183.5z"/>
	<path fill="#AC7E51" d="M123.7,300.1c0,0,55.9,11.8,106.3,11.2c50.5-0.6,102.5-12,110.2-15.7c7.7-3.6-35.4,24.8-50,29.9
		c-14.6,5-40.5,12.9-40.5,12.9H203c0,0-25.3-6.9-31-8.5c-5.7-1.7-24-11.4-27.3-13.6C141.3,314,123.7,300.1,123.7,300.1z"/>
	<path fill="#040301" d="M262.5,134.9c-13.7-10.4-29-13.8-45.8-12.5c-0.4,0-0.8,0-1.1,0.1c-8.8,1.9-17.4,4.3-24.8,9.7
		c-0.1,0.4-0.3,0.7-0.4,1.1c-0.3,14.2-9.1,25.6-22.6,29.2c-0.5,0.5-1.1,0.9-1.6,1.4c-1.1,6.7-3.8,13.1-3.6,20
		c0.9,27.2,17.3,50.2,44.1,59.1c9.8,3.3,19.8,2.5,29.8,1.9c0.2-0.2,0.4-0.3,0.7-0.3c6.5-1.6,12.8-3.9,18.7-7
		c1.1-0.7,2.2-1.4,3.3-2.1c1.3-1,2.6-2,3.9-3C294.5,208.2,294.2,159.1,262.5,134.9z"/>
	<g>
		<defs>
			<polygon id="SVGID_1_" points="167.7,162.4 168.3,158.2 181.7,139.7 186.3,135.4 187.4,134.5 190.3,133.2 190.9,132 197.4,122.5 
				175.5,96.2 148.6,96.5 130.7,103.7 123.3,131.3 133.1,161.8 165.4,167 166.1,163.8 			"/>
		</defs>
		<clipPath id="SVGID_2_">
			<use xlink:href="#SVGID_1_"  overflow="visible"/>
		</clipPath>
		<path clip-path="url(#SVGID_2_)" fill="#E8CBAD" d="M159,101c-17.6,0-31.9,14.3-31.9,31.9s14.3,31.9,31.9,31.9
			c2.4,0,4.7-0.3,7-0.8c14.3-3.2,25-15.9,25-31.2C191,115.3,176.7,101,159,101z"/>
	</g>
	<circle fill="#FEF8F6" cx="159.1" cy="132.3" r="27.3"/>
	<path fill="#959594" d="M168.1,158.5c-0.1,1.3-0.3,2.6-0.4,3.9c13.5-3.6,22.3-15,22.6-29.2c-1,0.4-1.9,0.8-2.9,1.2
		C179.2,141.1,173.1,149.4,168.1,158.5z"/>
	<path display="none" fill="#323030" stroke="#000000" stroke-width="4" stroke-miterlimit="10" d="M335.4,67.7
		c-4.1-1-8.3-1.9-12.6-2.7c-25.1-4.6-55.2-8.9-80.8-8.9c0,0.1,2.1,1.9,0.9,2.1c-0.1,0-0.2,0-0.3,0c0,0,0,0,0,0
		c1.5,0.4,4.4-0.6,4.4-0.4c0.4,0.1,0.7,0.2,1.1,0.4c1.1,0,2.1,0,3.2,0c2.2,0,4.4-0.1,6.5-0.1c1.4,0,2.9,0,4.3,0
		c3.3,2.4,7.6-0.3,10.9,2c1.1,0.1,2.1,0.2,3.2,0.3c2.2-0.2,4.3-0.4,6.4,0.4c1.2,0.2,2.3,0.5,3.5,0.7c4.4,0.3,8.8,0.5,13,2.1
		c1.1,0,2.1,0.1,3.2,0.1c3,0.6,6,1.2,9.1,1.8c0.6,0.1,1.2,0.2,1.9,0.3c4.6,0.5,9.2,1,13.5,3c3.4,0.5,6.7,1.1,10,1.8
		C336.3,69.6,335.8,68.7,335.4,67.7z"/>
	<path display="none" fill="#323030" stroke="#000000" stroke-width="4" stroke-miterlimit="10" d="M242,56.2
		c-32.5-2.8-79,4.1-110.9,13.4c-14.6,4.2-28.7,9.2-42.5,14.9c-1.4,1.4-2.8,2.8-4.2,4.2c10.7-4.6,21.6-8.9,32.7-12.8
		c1.3-0.5,2.8-0.4,4.2-0.6c0.1-0.3,0.3-0.4,0.6-0.4c4.9-2.7,10.3-3.7,15.7-4.7c1-0.3,2-0.5,3.1-0.8c2.5-0.9,4.9-1.8,7.6-1.7l0,0
		c8.1-2.8,16.6-3.9,25-5.2c1.1,0,2.2,0,3.3,0c0.7,0,1.5,0.1,2.2,0.1c1.1-0.4,2.1-0.7,3.2-1.1c6.5-1.4,13-2.2,19.6-2.1
		c1,0,2.1,0,3.1,0c6.8-2,13.8-1.1,20.7-1.1c0.5,0,12.8,0.6,17.3,0.1C241.7,58.1,242,56.4,242,56.2z"/>
	<path display="none" fill="#323030" stroke="#000000" stroke-width="4" stroke-miterlimit="10" d="M275.2,337.8
		c-2.5,0.4-5,0.7-7.5,1.1c-0.4,0-0.7,0.1-1.1,0.1c-18.3,3.6-36.6,6.8-55.3,4.3c-0.4-0.1-0.8-0.1-1.2-0.2c-2.4-0.1-4.9,1.1-7.1-0.8
		c-24.2-1.4-47.8-6.2-71.1-12.5c-13.7-3.7-27.1-8-40.2-12.9c1.4,1.4,2.8,2.7,4.1,3.9c28.1,10.1,57.6,17.6,88.4,22.1
		c22.2,3.3,44.5,4.5,66.9,1.3c29.5-4.3,58.3-11.3,86.6-20.2c0.1-0.1,0.1-0.2,0.2-0.2c-0.7-0.6-1.3-1.2-1.9-1.8
		C316,328.3,295.8,333.7,275.2,337.8z"/>
	<path display="none" fill="#AC7E51" d="M163.5,314.1c-4.3-0.4-8.7-0.8-13-1.2c-1.1-0.3-2.2-0.7-3.2-1c-2.7-0.2-5.2-0.7-7.6-2.1
		c-1.2-0.1-2.5,0.1-3.3-1.1c-2.3,0-4.6,0-6.9,0.1c8.5,7.7,18.2,13.5,28.6,18.3l0.2-0.2c-0.3-4.8,4-7.6,5.2-11.7
		C163.5,314.8,163.5,314.5,163.5,314.1z"/>
	<path display="none" fill="#AC7E51" d="M177.6,316.2c-1.1,0-2.2,0-3.2,0c-2.2-0.4-4.3-0.7-6.5-1.1c-0.4,0-0.7,0-1.1,0
		c-2.4,4.2-2.6,10-8.5,11.7c0,0-0.2,0.2-0.2,0.2c7.8,4.7,16.2,7.5,25,9.6c0.9-6.9,4.4-12.9,6.5-19.4
		C185.5,317.9,181.6,316.3,177.6,316.2z"/>
	<path display="none" fill="#AC7E51" d="M199.3,318.3c-2.1-1.2-4.3-1.1-6.5-1c-1.8,5.6-3.7,11.2-5.5,16.8c-0.6,1.9-1.7,2.6-3.5,2.8
		c6,3.1,13,2.6,19.1,5.4c2.2,1.9,4.7,0.6,7.1,0.8c-0.8-7.1,2.4-13.6,2.8-20.5c0.1-1.4,0.3-2.8,0.5-4.3c-3.6,0-7.3-0.1-10.9-0.1
		C201.4,318.3,200.4,318.3,199.3,318.3z"/>
	<path display="none" fill="#AC7E51" d="M263,333.8c-0.6-5.9-2-11.8-3-17.6c-0.4,0-0.7,0-1.1,0c-3.6,0-7.2,0.1-10.8,0.1
		c-0.7,0-1.5,0-2.2,0c-2.1,0.3-4.2,1.4-6.4,1l-0.1,0.1c-0.7,7,1.5,13.9,1.1,20.9c-0.1,1.4,0.8,3.8-1.8,3.6c-2-0.1-1.4-2.2-1.4-3.5
		c-0.1-7,0-14,0-21c-0.4,0-0.7,0-1.1,0c-3.6,0-7.2,0-10.8,0c-0.7,1.1-1.5,1.1-2.2,0c-2.2,0.3-4.3,0.7-6.5,1c-1,5.2-2,10.4-2.2,15.7
		c-0.1,3.3-0.4,6.7-3.2,9.2c18.7,2.5,37-0.7,55.3-4.3C264.7,337.8,263.3,336.6,263,333.8z"/>
	<path display="none" fill="#AC7E51" d="M289,326.7c-1.6-4.3-3.4-8.5-5.1-12.7c-0.4,0-0.7,0-1.1,0c-11.5,0.2-11.5,0.2-8.4,11.4
		c1.6,5.9,1.6,5.9,0.8,10.3c-2.5-7.7-4.8-13.8-5.4-20.5c-0.4,0-0.7,0-1.1-0.1c-1.8,0.1-3.7,0.1-5.5,0.2c0.5,8.1,3,15.7,4.4,23.6
		c2.5-0.4,5-0.7,7.5-1.1c-0.1-3.1,2.8-2.4,4.3-2.8c4.7-1.3,8.9-3.4,13.1-5.7l-0.2-0.2C290.4,329.5,289.7,328.5,289,326.7z"/>
	<path display="none" fill="#AC7E51" d="M323,306.6c-1.1,0-2.1,0-3.2,0c-2.3,1.5-4.8,2.2-7.5,2c-0.8,0-1.5,0.1-2.3,0.1
		c-4.1,1.9-8.5,2.2-13,2.1c-1.2,1.6-2.8,1-4.3,1c-1.7,1.1-3.5,1.2-5.5,1.2c1.2,5.5,5.1,10.1,5.2,16c0,0,0.2,0.2,0.2,0.2
		c4.5-0.9,8.2-3.7,12-5.9c7.5-4.4,15.8-7.9,20.8-15.7C324.4,307.6,323.5,307.5,323,306.6z"/>
	<path fill="#AC7E51" d="M173.8,366.8"/>
	<path fill="none" stroke="#000000" stroke-width="7" stroke-miterlimit="10" d="M86,77.5c0,0,53.7-26.9,135.5-27.3
		s116.4,16.3,116.4,16.3"/>
	<path fill="none" stroke="#000000" stroke-width="7" stroke-miterlimit="10" d="M91.7,313.5c0,0,46,23.6,123.1,24.9
		c77.1,1.3,123.3-23,123.3-23"/>
</g>
<g id="Layer_2_1_">
	<g>
		<g>
			<path opacity="0.2" fill="#010101" enable-background="new    " d="M554.8,500.5L400.3,351.8c-7.9-7.6-20.8-7.6-28.7,0l-1.8,1.7
				l-20.4-19.6c32.7-31.8,52.9-75.5,52.9-123.7c0-28.6-7.1-55.6-19.7-79.5c7.1,18.3,11.1,38.2,11.1,58.9
				c0,93.2-78.9,168.7-176.2,168.7S41.2,282.8,41.2,189.7c0-8.7,0.7-17.2,2-25.5c-4.1,14.7-6.3,30.1-6.3,46
				c0,97.1,81.8,175.8,182.7,175.8c43.5,0,83.3-14.6,114.7-39l21.1,20.3l-1.8,1.7c-7.9,7.6-7.9,20,0,27.7l154.5,148.7
				c7.9,7.6,20.8,7.6,28.7,0l18-17.3C562.7,520.5,562.7,508.1,554.8,500.5z"/>
		</g>
	</g>
	<g>
		<g>
			<path fill="#333333" d="M219.6,16.1c-100.9,0-182.7,78.7-182.7,175.8c0,97.1,81.8,175.8,182.7,175.8
				c100.9,0,182.7-78.7,182.7-175.8C402.3,94.8,320.5,16.1,219.6,16.1z M219.6,355.3C126,355.3,49.8,282,49.8,191.9
				S126,28.6,219.6,28.6c93.6,0,169.7,73.3,169.7,163.4S313.2,355.3,219.6,355.3z"/>
		</g>
	</g>
	<g id="Layer_2" display="none">
		<path id="path155" fill="none" d="M654.6,621.1H94.5V61h560.1V621.1z"/>
	</g>
	<path id="path170_1_" fill="#010101" d="M329.3,323.8L480.2,469l14.4-13.8L343.7,310L329.3,323.8z"/>
	<path id="path171_1_" fill="#993720" d="M353.6,350.8c-7.9,7.6-7.9,20,0,27.7l154.5,148.7c7.9,7.6,20.8,7.6,28.7,0l18-17.3
		c7.9-7.6,7.9-20,0-27.7L400.3,333.5c-7.9-7.6-20.8-7.6-28.7,0L353.6,350.8z"/>
	
		<linearGradient id="path178_2_" gradientUnits="userSpaceOnUse" x1="1957.9415" y1="-1462.6193" x2="2088.9309" y2="-1312.9176" gradientTransform="matrix(0.2715 3.135465e-003 3.258090e-003 -0.2613 -92.5366 63.4922)">
		<stop  offset="0" style="stop-color:#F8991D"/>
		<stop  offset="1" style="stop-color:#FFCC67"/>
	</linearGradient>
	<path id="path178_1_" fill="url(#path178_2_)" d="M394.3,339.7c-3.9-3.9-10.4-3.9-14.4-0.2l-18.2,17.1c-4,3.8-4.1,10-0.2,13.8
		l152.6,150.4c3.9,3.9,10.4,3.9,14.4,0.2l18.2-17.1c4-3.8,4.1-10,0.2-13.8L394.3,339.7z"/>
</g>
</svg>
