<?xml version="1.0" encoding="UTF-8" standalone="no"?>
<!-- Created with Inkscape (http://www.inkscape.org/) -->

<svg
   xmlns:dc="http://purl.org/dc/elements/1.1/"
   xmlns:cc="http://creativecommons.org/ns#"
   xmlns:rdf="http://www.w3.org/1999/02/22-rdf-syntax-ns#"
   xmlns:svg="http://www.w3.org/2000/svg"
   xmlns="http://www.w3.org/2000/svg"
   xmlns:xlink="http://www.w3.org/1999/xlink"
   xmlns:sodipodi="http://sodipodi.sourceforge.net/DTD/sodipodi-0.dtd"
   xmlns:inkscape="http://www.inkscape.org/namespaces/inkscape"
   width="39.946049"
   height="38.040634"
   id="svg1377"
   sodipodi:version="0.32"
   inkscape:version="0.48.1 "
   sodipodi:docname="AJAX.svg"
   version="1.1">
  <defs
     id="defs1379">
    <linearGradient
       y2="56.052299"
       x2="47.319698"
       y1="11.1133"
       x1="4.1914001"
       gradientUnits="userSpaceOnUse"
       id="aigrd1">
      <stop
         id="stop6490"
         style="stop-color:#D4D4D4"
         offset="0" />
      <stop
         id="stop6492"
         style="stop-color:#E2E2E2"
         offset="0.3982" />
      <stop
         id="stop6494"
         style="stop-color:#FFFFFF"
         offset="1" />
    </linearGradient>
    <linearGradient
       inkscape:collect="always"
       xlink:href="#linearGradient6525"
       id="linearGradient5250"
       x1="8.5469341"
       y1="30.281681"
       x2="30.85088"
       y2="48.301884"
       gradientUnits="userSpaceOnUse"
       gradientTransform="matrix(0.899009,0,0,0.934235,1.875108,1.193645)" />
  </defs>
  <sodipodi:namedview
     id="base"
     pagecolor="#ffffff"
     bordercolor="#666666"
     borderopacity="1.0"
     inkscape:pageopacity="0.0"
     inkscape:pageshadow="2"
     inkscape:zoom="10.203655"
     inkscape:cx="22.126737"
     inkscape:cy="10.59159"
     inkscape:current-layer="g7435"
     showgrid="true"
     inkscape:grid-bbox="true"
     inkscape:document-units="px"
     inkscape:window-width="1280"
     inkscape:window-height="1004"
     inkscape:window-x="-8"
     inkscape:window-y="-8"
     fit-margin-top="0"
     fit-margin-left="0"
     fit-margin-right="0"
     fit-margin-bottom="0"
     inkscape:window-maximized="1" />
  <metadata
     id="metadata1382">
    <rdf:RDF>
      <cc:Work
         rdf:about="">
        <dc:format>image/svg+xml</dc:format>
        <dc:type
           rdf:resource="http://purl.org/dc/dcmitype/StillImage" />
        <dc:title>Dialog Warning</dc:title>
        <dc:date>2005-10-14</dc:date>
        <dc:creator>
          <cc:Agent>
            <dc:title>Andreas Nilsson</dc:title>
          </cc:Agent>
        </dc:creator>
        <dc:contributor>
          <cc:Agent>
            <dc:title>Jakub Steiner</dc:title>
          </cc:Agent>
        </dc:contributor>
        <dc:subject>
          <rdf:Bag>
            <rdf:li>dialog</rdf:li>
            <rdf:li>warning</rdf:li>
          </rdf:Bag>
        </dc:subject>
        <cc:license
           rdf:resource="http://creativecommons.org/licenses/by-sa/2.0/" />
      </cc:Work>
      <cc:License
         rdf:about="http://creativecommons.org/licenses/by-sa/2.0/">
        <cc:permits
           rdf:resource="http://web.resource.org/cc/Reproduction" />
        <cc:permits
           rdf:resource="http://web.resource.org/cc/Distribution" />
        <cc:requires
           rdf:resource="http://web.resource.org/cc/Notice" />
        <cc:requires
           rdf:resource="http://web.resource.org/cc/Attribution" />
        <cc:permits
           rdf:resource="http://web.resource.org/cc/DerivativeWorks" />
        <cc:requires
           rdf:resource="http://web.resource.org/cc/ShareAlike" />
      </cc:License>
    </rdf:RDF>
  </metadata>
  <g
     id="layer1"
     inkscape:label="Layer 1"
     inkscape:groupmode="layer"
     transform="translate(-4.0374681,-2.9794491)">
    <g
       transform="matrix(1.566667,0,0,1.566667,-8.925566,-23.94764)"
       id="g7435">
      <g
         style="fill-rule:nonzero;stroke:#000000;stroke-miterlimit:4"
         id="Layer_x0020_2"
         transform="matrix(0.625,0,0,0.625,6.011173,14.00913)">
        <path
           id="path6480"
           d="M 48,48 0,48 0,0 48,0 48,48 z"
           style="fill:none;stroke:none"
           inkscape:connector-curvature="0" />
      </g>
      <path
         style="fill:#f1cd2f;fill-rule:nonzero;stroke:#e7c225;stroke-width:0.6382978;stroke-miterlimit:4;stroke-opacity:1;stroke-dasharray:none"
         d="M 33.282781,38.644744 22.407791,18.394765 c -0.312499,-0.562499 -0.874999,-0.874998 -1.499998,-0.874998 -0.625,0 -1.187499,0.374998 -1.499998,0.937498 L 8.7828048,38.707245 c -0.25,0.499999 -0.25,1.187499 0.0625,1.687498 0.312499,0.5 0.812499,0.749999 1.4374992,0.749999 l 21.499978,0 c 0.624999,0 1.187498,-0.312499 1.437499,-0.812499 0.312499,-0.5 0.312499,-1.124999 0.0625,-1.687499 z"
         id="path6485"
         inkscape:connector-curvature="0" />
      <g
         style="fill-rule:nonzero;stroke:#000000;stroke-miterlimit:4"
         transform="matrix(0.625,0,0,0.634254,5.907817,14.48395)"
         id="g6487">
        <linearGradient
           id="linearGradient6525"
           gradientUnits="userSpaceOnUse"
           x1="4.1914001"
           y1="11.1133"
           x2="47.319698"
           y2="56.052299">
          <stop
             offset="0"
             style="stop-color:#ffffff;stop-opacity:1;"
             id="stop6529" />
          <stop
             offset="1"
             style="stop-color:#ffffff;stop-opacity:0.34020618;"
             id="stop6531" />
        </linearGradient>
        <path
           style="fill:#ffffff;stroke:none"
           d="m 9.5,37.6 c -0.3,0.5 0,0.9 0.5,0.9 l 28.2,0 c 0.5,0 0.8,-0.4 0.5,-0.9 L 24.4,11 c -0.3,-0.5 -0.7,-0.5 -0.9,0 l -14,26.6 z"
           id="path6496"
           inkscape:connector-curvature="0" />
      </g>
      <g
         style="fill-rule:nonzero;stroke:#000000;stroke-miterlimit:4"
         transform="matrix(0.554873,0,0,0.554873,7.583837,16.5318)"
         id="g6498">
        <path
           style="fill:#000000;stroke:none"
           d="m 23.9,36.5 c -1.3,0 -2.3,-1 -2.3,-2.3 0,-1.4 0.9,-2.3 2.3,-2.3 1.4,0 2.2,0.9 2.3,2.3 0,1.3 -0.9,2.3 -2.3,2.3 l 0,0 z m -1.4,-5.9 -0.6,-11.5 4,0 -0.6,11.5 -2.9,0 0.1,0 z"
           id="path6500"
           inkscape:connector-curvature="0" />
      </g>
      <path
         style="opacity:0.5;fill:none;stroke:url(#linearGradient5250);stroke-width:0.63829792;stroke-miterlimit:4;stroke-opacity:1;stroke-dasharray:none"
         d="M 32.323106,38.183905 22.150271,19.265666 c -0.433291,-0.814976 -0.588573,-1.076453 -1.241865,-1.076453 -0.561881,0 -0.854279,0.380807 -1.257101,1.150078 L 9.7489285,38.242296 c -0.5751636,1.061292 -0.6361047,1.337932 -0.3551641,1.805049 0.280939,0.467117 0.6390326,0.441675 1.9626766,0.472146 l 19.618152,0 c 1.232232,0.01523 1.509395,-0.07865 1.734147,-0.545771 0.280941,-0.467118 0.159059,-0.83772 -0.385634,-1.789815 z"
         id="path1325"
         sodipodi:nodetypes="ccsccscccc"
         inkscape:connector-curvature="0" />
    </g>
  </g>
</svg>
